<?xml version="1.0" encoding="utf-8"?>
<!DOCTYPE svg PUBLIC "-//W3C//DTD SVG 1.1//EN" "http://www.w3.org/Graphics/SVG/1.1/DTD/svg11.dtd">
<svg version="1.1" baseProfile="full"
 xmlns="http://www.w3.org/2000/svg"
 xmlns:xlink="http://www.w3.org/1999/xlink"
 xmlns:ev="http://www.w3.org/2001/xml-events" 
  height="27px" 
  width="15px" 
>
<path fill="rgb( 175, 134, 85 )"
 d="M7.5,3.97299999999996 C3.66800000000001,3.97299999999996 0.99699999999996,3.18899999999996 0.99699999999996,2.48599999999999 C0.99699999999996,1.78200000000004 3.66800000000001,0.99900000000002 7.5,0.99900000000002 C11.332,0.99900000000002 14.003,1.78300000000002 14.003,2.48599999999999 C14.003,3.18899999999996 11.332,3.97299999999996 7.5,3.97299999999996 ZM7.5,1.46299999999997 C5.75699999999995,1.46299999999997 3.88099999999997,1.78300000000002 3.88099999999997,2.48500000000001 C3.88099999999997,3.18799999999999 5.75699999999995,3.50800000000004 7.5,3.50800000000004 C9.24300000000005,3.50800000000004 11.119,3.18799999999999 11.119,2.48500000000001 C11.119,1.78300000000002 9.24300000000005,1.46299999999997 7.5,1.46299999999997 ZM4.20799999999997,2.48599999999999 C4.20799999999997,2.25099999999998 5.37,1.79499999999996 7.5,1.79499999999996 C9.63,1.79499999999996 10.793,2.25099999999998 10.793,2.48599999999999 C10.793,2.72000000000003 9.63,3.17600000000004 7.5,3.17600000000004 C5.37,3.17600000000004 4.20799999999997,2.72000000000003 4.20799999999997,2.48599999999999 ZM8.452,2.48500000000001 C8.452,2.39400000000001 8.37900000000002,2.31899999999996 8.28899999999999,2.31899999999996 C8.28899999999999,2.31899999999996 6.60199999999998,2.31899999999996 6.60199999999998,2.31899999999996 C6.51199999999994,2.31899999999996 6.43899999999996,2.39400000000001 6.43899999999996,2.48500000000001 C6.43899999999996,2.577 6.51199999999994,2.65099999999995 6.60199999999998,2.65099999999995 C6.60199999999998,2.65099999999995 8.28899999999999,2.65099999999995 8.28899999999999,2.65099999999995 C8.37900000000002,2.65099999999995 8.452,2.577 8.452,2.48500000000001 ZM8.12599999999998,4.29700000000003 C8.12599999999998,4.29700000000003 8.12599999999998,15.399 8.12599999999998,15.399 C8.12599999999998,15.49 8.19899999999996,15.5650000000001 8.28899999999999,15.5650000000001 C8.37900000000002,15.5650000000001 8.452,15.49 8.452,15.399 C8.452,15.399 8.452,4.28700000000003 8.452,4.28700000000003 C9.06299999999999,4.26499999999999 9.66700000000003,4.221 10.244,4.15700000000004 C10.244,4.16200000000003 10.242,4.16600000000005 10.242,4.17200000000003 C10.242,4.17200000000003 10.242,6.43600000000004 10.242,6.43600000000004 C10.242,6.52700000000004 10.314,6.60199999999998 10.405,6.60199999999998 C10.494,6.60199999999998 10.568,6.52700000000004 10.568,6.43600000000004 C10.568,6.43600000000004 10.568,4.17200000000003 10.568,4.17200000000003 C10.568,4.15300000000002 10.563,4.13599999999997 10.557,4.11800000000005 C12.112,3.92200000000003 13.42,3.56899999999996 14.003,3.07299999999998 C14.003,3.07299999999998 14.003,24.514 14.003,24.514 C14.003,25.008 12.682,25.5410000000001 10.568,25.8150000000001 C10.568,25.8150000000001 10.568,9.69899999999996 10.568,9.69899999999996 C10.568,9.60799999999995 10.494,9.53300000000002 10.405,9.53300000000002 C10.314,9.53300000000002 10.242,9.60799999999995 10.242,9.69899999999996 C10.242,9.69899999999996 10.242,25.855 10.242,25.855 C9.42399999999998,25.947 8.50300000000004,26.001 7.5,26.001 C3.66800000000001,26.001 0.99599999999998,25.218 0.99599999999998,24.514 C0.99599999999998,24.514 0.99599999999998,3.07399999999996 0.99599999999998,3.07399999999996 C1.94100000000003,3.87699999999995 4.78999999999996,4.30399999999997 7.5,4.30399999999997 C7.70799999999997,4.30399999999997 7.91600000000005,4.30200000000002 8.12599999999998,4.29700000000003 ZM13.078,8.81500000000005 C13.168,8.81500000000005 13.242,8.74099999999999 13.242,8.649 C13.242,8.649 13.242,5.94799999999998 13.242,5.94799999999998 C13.242,5.85699999999997 13.168,5.78300000000002 13.078,5.78300000000002 C12.9880000000001,5.78300000000002 12.915,5.85699999999997 12.915,5.94799999999998 C12.915,5.94799999999998 12.915,8.649 12.915,8.649 C12.915,8.74099999999999 12.9880000000001,8.81500000000005 13.078,8.81500000000005 ZM12.5890000000001,22.745 C12.5890000000001,22.837 12.662,22.9109999999999 12.752,22.9109999999999 C12.842,22.9109999999999 12.915,22.837 12.915,22.745 C12.915,22.745 12.915,20.087 12.915,20.087 C12.915,19.995 12.842,19.921 12.752,19.921 C12.662,19.921 12.5890000000001,19.995 12.5890000000001,20.087 C12.5890000000001,20.087 12.5890000000001,22.745 12.5890000000001,22.745 ZM11.717,15.78 C11.717,15.871 11.7910000000001,15.946 11.881,15.946 C11.971,15.946 12.044,15.871 12.044,15.78 C12.044,15.78 12.044,8.649 12.044,8.649 C12.044,8.55799999999999 11.971,8.48299999999995 11.881,8.48299999999995 C11.7910000000001,8.48299999999995 11.717,8.55799999999999 11.717,8.649 C11.717,8.649 11.717,15.78 11.717,15.78 ZM2.84699999999998,23.077 C2.84699999999998,23.168 2.91999999999996,23.2430000000001 3.00999999999999,23.2430000000001 C3.10000000000002,23.2430000000001 3.173,23.168 3.173,23.077 C3.173,23.077 3.173,11.634 3.173,11.634 C3.173,11.543 3.10000000000002,11.468 3.00999999999999,11.468 C2.91999999999996,11.468 2.84699999999998,11.543 2.84699999999998,11.634 C2.84699999999998,11.634 2.84699999999998,23.077 2.84699999999998,23.077 ZM1.86699999999996,8.93899999999996 C1.86699999999996,8.84799999999996 1.79399999999998,8.774 1.70399999999995,8.774 C1.61400000000003,8.774 1.54100000000005,8.84799999999996 1.54100000000005,8.93899999999996 C1.54100000000005,8.93899999999996 1.54100000000005,18.599 1.54100000000005,18.599 C1.54100000000005,18.691 1.61400000000003,18.765 1.70399999999995,18.765 C1.79399999999998,18.765 1.86699999999996,18.691 1.86699999999996,18.599 C1.86699999999996,18.599 1.86699999999996,8.93899999999996 1.86699999999996,8.93899999999996 ZM2.84699999999998,9.202 C2.84699999999998,9.202 2.84699999999998,10.805 2.84699999999998,10.805 C2.84699999999998,10.897 2.91999999999996,10.971 3.00999999999999,10.971 C3.10000000000002,10.971 3.173,10.897 3.173,10.805 C3.173,10.805 3.173,9.202 3.173,9.202 C3.173,9.11099999999999 3.10000000000002,9.03599999999994 3.00999999999999,9.03599999999994 C2.91999999999996,9.03599999999994 2.84699999999998,9.11099999999999 2.84699999999998,9.202 ZM3.39099999999996,6.99099999999999 C3.39099999999996,6.89999999999998 3.31799999999998,6.82500000000005 3.22799999999995,6.82500000000005 C3.13800000000003,6.82500000000005 3.06500000000005,6.89999999999998 3.06500000000005,6.99099999999999 C3.06500000000005,6.99099999999999 3.06500000000005,8.26199999999994 3.06500000000005,8.26199999999994 C3.06500000000005,8.35400000000004 3.13800000000003,8.428 3.22799999999995,8.428 C3.31799999999998,8.428 3.39099999999996,8.35400000000004 3.39099999999996,8.26199999999994 C3.39099999999996,8.26199999999994 3.39099999999996,6.99099999999999 3.39099999999996,6.99099999999999 ZM4.20799999999997,10.0309999999999 C4.20799999999997,9.94000000000005 4.13400000000001,9.86500000000001 4.04399999999998,9.86500000000001 C3.95399999999995,9.86500000000001 3.88099999999997,9.94000000000005 3.88099999999997,10.0309999999999 C3.88099999999997,10.0309999999999 3.88099999999997,16.167 3.88099999999997,16.167 C3.88099999999997,16.258 3.95399999999995,16.333 4.04399999999998,16.333 C4.13400000000001,16.333 4.20799999999997,16.258 4.20799999999997,16.167 C4.20799999999997,16.167 4.20799999999997,10.0309999999999 4.20799999999997,10.0309999999999 ZM4.20799999999997,22.524 C4.20799999999997,22.433 4.13400000000001,22.3579999999999 4.04399999999998,22.3579999999999 C3.95399999999995,22.3579999999999 3.88099999999997,22.433 3.88099999999997,22.524 C3.88099999999997,22.524 3.88099999999997,23.6849999999999 3.88099999999997,23.6849999999999 C3.88099999999997,23.777 3.95399999999995,23.851 4.04399999999998,23.851 C4.13400000000001,23.851 4.20799999999997,23.777 4.20799999999997,23.6849999999999 C4.20799999999997,23.6849999999999 4.20799999999997,22.524 4.20799999999997,22.524 ZM6.76499999999999,14.5359999999999 C6.76499999999999,14.4450000000001 6.69200000000001,14.371 6.60199999999998,14.371 C6.51199999999994,14.371 6.43899999999996,14.4450000000001 6.43899999999996,14.5359999999999 C6.43899999999996,14.5359999999999 6.43899999999996,24.514 6.43899999999996,24.514 C6.43899999999996,24.606 6.51199999999994,24.68 6.60199999999998,24.68 C6.69200000000001,24.68 6.76499999999999,24.606 6.76499999999999,24.514 C6.76499999999999,24.514 6.76499999999999,14.5359999999999 6.76499999999999,14.5359999999999 Z "/>
</svg>
