<?xml version="1.0" encoding="utf-8"?>
<!DOCTYPE svg PUBLIC "-//W3C//DTD SVG 1.1//EN" "http://www.w3.org/Graphics/SVG/1.1/DTD/svg11.dtd">
<svg version="1.1" baseProfile="full"
 xmlns="http://www.w3.org/2000/svg"
 xmlns:xlink="http://www.w3.org/1999/xlink"
 xmlns:ev="http://www.w3.org/2001/xml-events" 
  height="26px" 
  width="31px" 
>
<path fill="rgb( 229, 121, 0 )"
 d="M7.489,26 C5.72499999999999,22.394 6.66499999999999,20.328 8.02000000000001,18.3819999999999 C9.505,16.25 9.887,14.14 9.887,14.14 C9.887,14.14 11.055,15.63 10.588,17.961 C12.649,15.707 13.039,12.114 12.727,10.739 C17.388,13.938 19.38,20.866 16.695,26 C30.972,18.0650000000001 20.246,6.19100000000003 18.379,4.85299999999995 C19.002,6.19100000000003 19.12,8.45500000000004 17.862,9.55399999999997 C15.734,1.625 10.471,0 10.471,0 C11.093,4.08900000000006 8.215,8.55999999999995 5.43899999999999,11.901 C5.34100000000001,10.271 5.238,9.14599999999996 4.36500000000001,7.58500000000004 C4.16900000000001,10.547 1.86500000000001,12.962 1.24100000000001,15.93 C0.39599999999999,19.949 1.874,22.891 7.489,26 Z "/>
</svg>
