<?xml version="1.0" encoding="utf-8"?>
<!-- Generator: Adobe Illustrator 18.1.1, SVG Export Plug-In . SVG Version: 6.00 Build 0)  -->
<svg version="1.1" id="Layer_1" xmlns="http://www.w3.org/2000/svg" xmlns:xlink="http://www.w3.org/1999/xlink" x="0px" y="0px"
	 width="169px" height="86px" viewBox="-427 342 169 86" enable-background="new -427 342 169 86" xml:space="preserve">
<g id="укр_2_">
	<path fill-rule="evenodd" clip-rule="evenodd" fill="#FFFFFF" d="M-335.2,382.1h6.2c2.2,0,3.6,1.3,3.6,3.4c0,2.1-1.5,3.4-3.6,3.4
		h-6.2V382.1L-335.2,382.1z M-314.6,380.6l-6.4,14.6h3.1l1.1-2.5h11.5c-0.5-0.9-1.1-1.7-1.6-2.6h-8.7l3.1-7.4
		C-313.3,382.1-314,381.3-314.6,380.6L-314.6,380.6z M-427.1,379.4v15.8h2.9v-11.8l10.5,11.8h2.9v-15.8h-2.9v11.7l-10.5-11.7H-427.1
		L-427.1,379.4z M-407.7,379.4v15.8h14.5v-2.7h-11.6v-4.1h10.1v-2.6h-10.1v-3.8h11.2v-2.6H-407.7L-407.7,379.4z M-391.1,379.4
		l5.5,15.8h4.3l3.5-12.6h0.3l3.5,12.6h4.3l5.6-15.8h-3l-4.4,13.2h-0.5l-3.8-13.2h-3.8l-3.7,13.2h-0.5l-4.3-13.2H-391.1L-391.1,379.4
		z M-338.1,379.4v15.8h2.9v-3.6h6.8l2,3.6h3.2l-2.5-4.4c2-0.9,3.3-2.8,3.3-5.3c0-3.7-2.8-6.1-6.4-6.1H-338.1L-338.1,379.4z
		 M-355.4,379.4v15.8h14.5v-2.7h-11.6v-4.1h10.1v-2.6h-10.1v-3.8h11.2v-2.6H-355.4z"/>
	<path fill-rule="evenodd" clip-rule="evenodd" fill="#FFFFFF" d="M-342.1,353.4c5,2.1,9.7,4.6,14.1,7.4c0.1-2.5,0.4-4.9,0.9-6.2
		c0.5,1.5,0.7,4.3,0.6,7.2c3.4,2.3,6.7,4.9,9.7,7.7c2.7-5.3,6.1-11,7.8-12.9c-0.3,2.6-3.4,9-6.3,14.3c1.7,1.6,3.2,3.3,4.7,5
		c1.5-1.6,3.7-3.2,5.3-3.9c-1,1.5-2.9,3.3-4.8,4.5c2.2,2.6,4.3,5.3,6.2,8.1c3.5-0.7,7.2-0.8,10.8-0.1c-2.9,1.4-6.1,2.3-9.2,2.6
		c1,1.5,1.9,3.1,2.7,4.7c1.8,0.4,3.6,0.9,4.9,1.5c-1.1,0.2-2.5,0.3-4,0.2c5.3,10.4,8.4,21.9,9.1,33.7c-5.2-31.3-25.2-57.6-52.5-71.5
		c-5.4-2.8-11.2-5-17.2-6.7l-0.8-0.2l-0.7-0.2c-1.7-0.5-3.5-0.9-5.3-1.3C-358,348.2-349.9,350.2-342.1,353.4L-342.1,353.4z
		 M-294,397.9c3.8,2.1,14.2,5,18.5,5.3C-279.3,400.9-289.7,398-294,397.9L-294,397.9z M-303.7,380c2.3-0.1,6.2-1.5,8.1-3.1
		C-298,377.1-301.9,378.6-303.7,380L-303.7,380z M-321.6,362c1.7-2.9,3.9-13,3.4-16.7C-320,348.5-322.1,358.7-321.6,362L-321.6,362z
		 M-293,388.9c4.5,1.2,29.3,1.6,34.3,0.1C-263.7,387.8-288.5,387.5-293,388.9L-293,388.9z M-290.2,379c4,0.3,9.5-1.2,13.2-3.6
		C-281.4,375.2-286.9,376.8-290.2,379L-290.2,379z M-316.2,362.5c3.6-5.2,7-13.2,8.4-20.3C-311.7,348-314.9,356.1-316.2,362.5
		L-316.2,362.5z M-307.5,369.2c3-1.5,8-6.1,9.7-9.4C-301.1,361.5-306,366.2-307.5,369.2L-307.5,369.2z M-304.7,376.3
		c5.5-1.6,24.9-12.6,29.4-17.2C-281.4,360.8-300.6,372-304.7,376.3z"/>
	<path fill-rule="evenodd" clip-rule="evenodd" fill="#FFFFFF" d="M-423.5,370.3c0,0.1,0,0.2-0.1,0.3c-0.1,0.1-0.2,0.1-0.3,0.1h-2.6
		c-0.2,0-0.3,0-0.4-0.1c-0.1-0.1-0.2-0.2-0.2-0.4v-6c0-0.1,0-0.2,0.1-0.3c0.1-0.1,0.2-0.1,0.3-0.1h2.6c0.1,0,0.2,0,0.3,0.1
		c0.1,0.1,0.1,0.2,0.1,0.3c0,0.1,0,0.2-0.1,0.3c-0.1,0.1-0.2,0.1-0.3,0.1h-2.3v2.3h2.1c0.1,0,0.2,0,0.3,0.1c0.1,0.1,0.1,0.2,0.1,0.3
		c0,0.1,0,0.2-0.1,0.3c-0.1,0.1-0.2,0.1-0.3,0.1h-2.1v2.3h2.4c0.1,0,0.2,0,0.3,0.1C-423.5,370.1-423.5,370.2-423.5,370.3
		L-423.5,370.3z M-418.1,370.8c-0.1,0-0.2,0-0.2-0.1c-0.1,0-0.1-0.1-0.2-0.2l-2.8-5.2v5c0,0.1,0,0.2-0.1,0.3
		c-0.1,0.1-0.2,0.1-0.3,0.1c-0.1,0-0.2,0-0.3-0.1c-0.1-0.1-0.1-0.2-0.1-0.3v-6.2c0-0.1,0-0.2,0.1-0.3c0.1-0.1,0.2-0.1,0.3-0.1
		c0.1,0,0.2,0,0.2,0.1c0.1,0,0.1,0.1,0.2,0.2l2.8,5.2v-5c0-0.1,0-0.2,0.1-0.3c0.1-0.1,0.2-0.1,0.3-0.1c0.1,0,0.2,0,0.3,0.1
		c0.1,0.1,0.1,0.2,0.1,0.3v6.2c0,0.1,0,0.2-0.1,0.3C-417.8,370.7-417.9,370.8-418.1,370.8L-418.1,370.8z M-412.2,370.3
		c0,0.1,0,0.2-0.1,0.3c-0.1,0.1-0.2,0.1-0.3,0.1h-2.6c-0.2,0-0.3,0-0.4-0.1c-0.1-0.1-0.2-0.2-0.2-0.4v-6c0-0.1,0-0.2,0.1-0.3
		c0.1-0.1,0.2-0.1,0.3-0.1h2.6c0.1,0,0.2,0,0.3,0.1c0.1,0.1,0.1,0.2,0.1,0.3c0,0.1,0,0.2-0.1,0.3c-0.1,0.1-0.2,0.1-0.3,0.1h-2.3v2.3
		h2.1c0.1,0,0.2,0,0.3,0.1c0.1,0.1,0.1,0.2,0.1,0.3c0,0.1,0,0.2-0.1,0.3c-0.1,0.1-0.2,0.1-0.3,0.1h-2.1v2.3h2.4c0.1,0,0.2,0,0.3,0.1
		C-412.2,370.1-412.2,370.2-412.2,370.3L-412.2,370.3z M-406.5,365.8c0,0.5-0.1,0.9-0.4,1.2c-0.3,0.3-0.6,0.5-1.1,0.6l1.6,2.6
		c0,0.1,0,0.1,0,0.2c0,0.1-0.1,0.2-0.2,0.3c-0.1,0.1-0.2,0.1-0.3,0.1c-0.1,0-0.3-0.1-0.3-0.2l-1.7-2.9h-1.1v2.7c0,0.1,0,0.2-0.1,0.3
		c-0.1,0.1-0.2,0.1-0.3,0.1c-0.1,0-0.2,0-0.3-0.1c-0.1-0.1-0.1-0.2-0.1-0.3v-6.1c0-0.1,0-0.2,0.1-0.3c0.1-0.1,0.2-0.1,0.3-0.1h1.7
		c0.4,0,0.7,0.1,1,0.2c0.3,0.1,0.5,0.3,0.7,0.4c0.2,0.2,0.3,0.4,0.4,0.6C-406.5,365.3-406.5,365.5-406.5,365.8L-406.5,365.8z
		 M-407.2,365.8c0-0.1,0-0.3-0.1-0.4c0-0.1-0.1-0.3-0.2-0.4c-0.1-0.1-0.2-0.2-0.4-0.3c-0.2-0.1-0.4-0.1-0.7-0.1h-1.3v2.3h1.4
		c0.4,0,0.8-0.1,1-0.3C-407.4,366.4-407.2,366.1-407.2,365.8L-407.2,365.8z M-404.3,368.3c0,0.3,0,0.5,0.1,0.7
		c0,0.2,0.1,0.4,0.2,0.6c0.1,0.2,0.3,0.3,0.5,0.4c0.2,0.1,0.4,0.1,0.7,0.1c0.2,0,0.4,0,0.6-0.1c0.2-0.1,0.3-0.2,0.5-0.3v-2.1h-0.9
		c-0.1,0-0.2,0-0.3-0.1c-0.1-0.1-0.1-0.2-0.1-0.3c0-0.1,0-0.2,0.1-0.3c0.1-0.1,0.2-0.1,0.3-0.1h1.2c0.2,0,0.3,0,0.4,0.1
		c0.1,0.1,0.2,0.2,0.2,0.3v2.3c0,0.2-0.1,0.4-0.2,0.5c-0.1,0.1-0.3,0.3-0.5,0.4c-0.2,0.1-0.4,0.2-0.6,0.2c-0.2,0-0.4,0.1-0.7,0.1
		c-0.4,0-0.7-0.1-1-0.2c-0.3-0.1-0.5-0.3-0.7-0.5c-0.2-0.2-0.3-0.5-0.4-0.8c-0.1-0.3-0.1-0.6-0.1-1v-2.1c0-0.4,0-0.7,0.1-1
		c0.1-0.3,0.2-0.6,0.4-0.8c0.2-0.2,0.4-0.4,0.7-0.5c0.3-0.1,0.6-0.2,1-0.2c0.2,0,0.4,0,0.6,0.1c0.2,0,0.4,0.1,0.6,0.2
		c0.2,0.1,0.3,0.2,0.4,0.3c0.1,0.1,0.1,0.2,0.1,0.3c0,0.1,0,0.2-0.1,0.2c-0.1,0.1-0.1,0.1-0.3,0.1c-0.1,0-0.1,0-0.2,0
		c0,0-0.1-0.1-0.2-0.1c-0.3-0.2-0.6-0.3-1-0.3c-0.3,0-0.5,0-0.7,0.1c-0.2,0.1-0.3,0.2-0.5,0.4c-0.1,0.2-0.2,0.3-0.2,0.6
		c0,0.2-0.1,0.5-0.1,0.7V368.3L-404.3,368.3z M-397.7,370.8c-0.1,0-0.2,0-0.3-0.1c-0.1-0.1-0.1-0.2-0.1-0.3V368l-1.7-3.7
		c0-0.1,0-0.1,0-0.2c0-0.1,0-0.2,0.1-0.3c0.1-0.1,0.2-0.1,0.3-0.1c0.1,0,0.1,0,0.2,0c0.1,0,0.1,0.1,0.1,0.1l1.5,3.2l1.5-3.2
		c0-0.1,0.1-0.1,0.1-0.1c0.1,0,0.1,0,0.2,0c0.1,0,0.2,0,0.3,0.1c0.1,0.1,0.1,0.2,0.1,0.3c0,0.1,0,0.1,0,0.2l-1.7,3.7v2.4
		c0,0.1,0,0.2-0.1,0.3C-397.5,370.7-397.6,370.8-397.7,370.8L-397.7,370.8z M-390.9,368.3c0,0.3,0,0.5,0.1,0.7
		c0,0.2,0.1,0.4,0.2,0.6c0.1,0.2,0.3,0.3,0.5,0.4c0.2,0.1,0.4,0.1,0.7,0.1c0.2,0,0.4,0,0.6-0.1c0.2-0.1,0.3-0.2,0.5-0.3v-2.1h-0.9
		c-0.1,0-0.2,0-0.3-0.1c-0.1-0.1-0.1-0.2-0.1-0.3c0-0.1,0-0.2,0.1-0.3c0.1-0.1,0.2-0.1,0.3-0.1h1.2c0.2,0,0.3,0,0.4,0.1
		c0.1,0.1,0.2,0.2,0.2,0.3v2.3c0,0.2-0.1,0.4-0.2,0.5c-0.1,0.1-0.3,0.3-0.5,0.4c-0.2,0.1-0.4,0.2-0.6,0.2c-0.2,0-0.4,0.1-0.7,0.1
		c-0.4,0-0.7-0.1-1-0.2c-0.3-0.1-0.5-0.3-0.7-0.5c-0.2-0.2-0.3-0.5-0.4-0.8c-0.1-0.3-0.1-0.6-0.1-1v-2.1c0-0.4,0-0.7,0.1-1
		c0.1-0.3,0.2-0.6,0.4-0.8c0.2-0.2,0.4-0.4,0.7-0.5c0.3-0.1,0.6-0.2,1-0.2c0.2,0,0.4,0,0.6,0.1c0.2,0,0.4,0.1,0.6,0.2
		c0.2,0.1,0.3,0.2,0.4,0.3c0.1,0.1,0.1,0.2,0.1,0.3c0,0.1,0,0.2-0.1,0.2c-0.1,0.1-0.1,0.1-0.3,0.1c-0.1,0-0.1,0-0.2,0
		c0,0-0.1-0.1-0.2-0.1c-0.3-0.2-0.6-0.3-1-0.3c-0.3,0-0.5,0-0.7,0.1c-0.2,0.1-0.3,0.2-0.5,0.4c-0.1,0.2-0.2,0.3-0.2,0.6
		c0,0.2-0.1,0.5-0.1,0.7V368.3L-390.9,368.3z M-381.6,365.8c0,0.5-0.1,0.9-0.4,1.2c-0.3,0.3-0.6,0.5-1.1,0.6l1.6,2.6
		c0,0.1,0,0.1,0,0.2c0,0.1-0.1,0.2-0.2,0.3c-0.1,0.1-0.2,0.1-0.3,0.1c-0.1,0-0.3-0.1-0.3-0.2l-1.7-2.9h-1.1v2.7c0,0.1,0,0.2-0.1,0.3
		c-0.1,0.1-0.2,0.1-0.3,0.1c-0.1,0-0.2,0-0.3-0.1c-0.1-0.1-0.1-0.2-0.1-0.3v-6.1c0-0.1,0-0.2,0.1-0.3c0.1-0.1,0.2-0.1,0.3-0.1h1.7
		c0.4,0,0.7,0.1,1,0.2c0.3,0.1,0.5,0.3,0.7,0.4c0.2,0.2,0.3,0.4,0.4,0.6C-381.7,365.3-381.6,365.5-381.6,365.8L-381.6,365.8z
		 M-382.4,365.8c0-0.1,0-0.3-0.1-0.4c0-0.1-0.1-0.3-0.2-0.4c-0.1-0.1-0.2-0.2-0.4-0.3c-0.2-0.1-0.4-0.1-0.7-0.1h-1.3v2.3h1.4
		c0.4,0,0.8-0.1,1-0.3C-382.5,366.4-382.4,366.1-382.4,365.8L-382.4,365.8z M-378,370.8c-0.4,0-0.7-0.1-1-0.2
		c-0.3-0.1-0.5-0.3-0.7-0.5c-0.2-0.2-0.3-0.5-0.4-0.8c-0.1-0.3-0.1-0.6-0.1-1v-2.1c0-0.3,0-0.7,0.1-1c0.1-0.3,0.2-0.6,0.4-0.8
		c0.2-0.2,0.4-0.4,0.7-0.5c0.3-0.1,0.6-0.2,1-0.2c0.4,0,0.7,0.1,1,0.2c0.3,0.1,0.5,0.3,0.7,0.5c0.2,0.2,0.3,0.5,0.4,0.8
		c0.1,0.3,0.1,0.6,0.1,1v2.1c0,0.3,0,0.7-0.1,1c-0.1,0.3-0.2,0.6-0.4,0.8c-0.2,0.2-0.4,0.4-0.7,0.5
		C-377.3,370.7-377.6,370.8-378,370.8L-378,370.8z M-378,364.5c-0.3,0-0.5,0-0.7,0.1c-0.2,0.1-0.3,0.2-0.5,0.4
		c-0.1,0.1-0.2,0.3-0.3,0.5c-0.1,0.2-0.1,0.4-0.1,0.7v2.1c0,0.5,0.1,0.9,0.4,1.3c0.2,0.3,0.6,0.5,1.1,0.5c0.5,0,0.9-0.2,1.1-0.5
		c0.2-0.3,0.4-0.7,0.4-1.3v-2.1c0-0.3,0-0.5-0.1-0.7c-0.1-0.2-0.1-0.4-0.3-0.5c-0.1-0.1-0.3-0.3-0.5-0.4
		C-377.5,364.5-377.7,364.5-378,364.5L-378,364.5z M-369.9,368.4c0,0.3,0,0.6-0.1,0.9c-0.1,0.3-0.2,0.5-0.4,0.7
		c-0.2,0.2-0.4,0.4-0.7,0.5c-0.3,0.1-0.6,0.2-0.9,0.2c-0.3,0-0.7-0.1-0.9-0.2c-0.3-0.1-0.5-0.3-0.7-0.5c-0.2-0.2-0.3-0.5-0.4-0.7
		c-0.1-0.3-0.1-0.6-0.1-0.9v-4.3c0-0.1,0-0.2,0.1-0.3c0.1-0.1,0.2-0.1,0.3-0.1c0.1,0,0.2,0,0.3,0.1c0.1,0.1,0.1,0.2,0.1,0.3v4.3
		c0,0.5,0.1,0.8,0.3,1.1c0.2,0.3,0.6,0.4,1,0.4c0.2,0,0.4,0,0.6-0.1c0.2-0.1,0.3-0.2,0.4-0.3c0.1-0.1,0.2-0.3,0.2-0.5
		c0.1-0.2,0.1-0.4,0.1-0.6v-4.3c0-0.1,0-0.2,0.1-0.3c0.1-0.1,0.2-0.1,0.3-0.1c0.1,0,0.2,0,0.3,0.1c0.1,0.1,0.1,0.2,0.1,0.3V368.4
		L-369.9,368.4z M-367.4,368.1v2.2c0,0.1,0,0.2-0.1,0.3c-0.1,0.1-0.2,0.1-0.3,0.1c-0.1,0-0.2,0-0.3-0.1c-0.1-0.1-0.1-0.2-0.1-0.3
		v-6.1c0-0.1,0-0.2,0.1-0.3c0.1-0.1,0.2-0.1,0.3-0.1h1.4c0.4,0,0.7,0.1,1,0.2c0.3,0.1,0.5,0.3,0.7,0.5c0.2,0.2,0.3,0.4,0.4,0.7
		c0.1,0.3,0.1,0.5,0.1,0.8c0,0.7-0.2,1.2-0.6,1.6c-0.4,0.4-0.9,0.6-1.6,0.6H-367.4L-367.4,368.1z M-367.4,367.4h1.1
		c0.5,0,0.8-0.1,1.1-0.3c0.2-0.2,0.4-0.6,0.4-1.1c0-0.2,0-0.3-0.1-0.5c0-0.2-0.1-0.3-0.2-0.5c-0.1-0.1-0.2-0.2-0.4-0.3
		c-0.2-0.1-0.4-0.1-0.7-0.1h-1.1V367.4z"/>
</g>
</svg>
