<?xml version="1.0" encoding="utf-8"?>
<!-- Generator: Adobe Illustrator 18.1.1, SVG Export Plug-In . SVG Version: 6.00 Build 0)  -->
<svg version="1.1" id="on_green" xmlns="http://www.w3.org/2000/svg" xmlns:xlink="http://www.w3.org/1999/xlink" x="0px" y="0px"
	 width="199.3px" height="85.1px" viewBox="0 0 199.3 85.1" enable-background="new 0 0 199.3 85.1" xml:space="preserve">
<g id="рус_1_">
	<path fill-rule="evenodd" clip-rule="evenodd" fill="#FFFFFF" d="M0,36.8v15.8h2.9v-6.9H13v6.9h2.9V36.8H13v6.3H2.9v-6.3H0L0,36.8z
		 M142.8,38l-6.4,14.6h3.1l1.1-2.5h11.5c-0.5-0.9-1.1-1.7-1.6-2.6h-8.7l3.1-7.4C144.1,39.4,143.5,38.7,142.8,38L142.8,38z
		 M120.8,36.8h9.3c3.6,0,6.4,2.4,6.4,6.1c0,3.7-2.8,6-6.4,6h-6.4v3.6h-2.9V36.8L120.8,36.8z M123.7,39.5v6.8h6.2
		c2.2,0,3.6-1.3,3.6-3.4c0-2.1-1.5-3.5-3.6-3.5H123.7L123.7,39.5z M107.5,43.3v2.5h7.8c-0.4,2.8-2.7,4.6-5.8,4.6
		c-2.6,0-4.3-1-5.6-2.7l-2.3,1.3c1.7,2.5,4.2,4,7.8,4c5,0,8.8-3.2,8.8-8.3c0-5.1-3.8-8.3-8.7-8.3c-3.6,0-6.2,1.4-7.8,4l2.3,1.3
		c1.3-1.7,3-2.6,5.6-2.6c3,0,5.2,1.6,5.7,4.2H107.5L107.5,43.3z M21.5,44.7c0-3.6,2.6-5.8,5.9-5.8c3.3,0,5.9,2.1,5.9,5.8
		c0,3.6-2.6,5.8-5.9,5.8C24.1,50.5,21.5,48.4,21.5,44.7L21.5,44.7z M36.2,44.7c0-5-3.9-8.3-8.8-8.3c-4.9,0-8.8,3.3-8.8,8.3
		c0,5,3.9,8.3,8.8,8.3C32.3,53,36.2,49.7,36.2,44.7L36.2,44.7z M38.9,36.8v15.8h10.8c3.1,0,5.2-2.2,5.2-4.8c0-1.9-0.9-3.3-2.5-4
		c0.9-0.6,1.3-1.6,1.3-2.9c0-2.5-2-4.1-4.8-4.1H38.9L38.9,36.8z M41.9,39.5h7c1.7,0,2.2,0.9,2.2,1.9c0,0.9-0.6,1.8-1.7,1.8h-7.4
		V39.5L41.9,39.5z M41.9,45.6h8c1.3,0,2.2,0.8,2.2,2.1c0,1.2-0.9,2.2-2.5,2.2h-7.8V45.6L41.9,45.6z M64.7,39.4h1.8l3.3,8.1h-8.5
		L64.7,39.4L64.7,39.4z M62.9,36.8L56,52.6h3.1l1.1-2.5h10.7l1.1,2.5h3.1l-6.7-15.8H62.9L62.9,36.8z M92.7,36.8h-9.3
		c-3.6,0-6.4,2.5-6.4,6.1c0,2.4,1.1,4.2,3.2,5.3l-2.5,4.4h3.2l2-3.7h6.9v3.7h2.9V36.8L92.7,36.8z M89.7,39.5v6.8h-6.2
		c-2.2,0-3.6-1.2-3.6-3.3c0-2.1,1.5-3.5,3.6-3.5H89.7z"/>
	<path fill-rule="evenodd" clip-rule="evenodd" fill="#FFFFFF" d="M153.3,34c4.1-4.3,23.3-15.5,29.4-17.2
		C178.2,21.4,158.9,32.5,153.3,34L153.3,34z M164.1,55.7c3.8,2.1,14.2,5,18.5,5.3C178.8,58.7,168.3,55.7,164.1,55.7L164.1,55.7z
		 M116,11.2c-7.9-3.2-15.9-5.2-23.9-6c1.8,0.4,3.5,0.8,5.3,1.3L98,6.6l0.8,0.2c6,1.7,11.8,4,17.2,6.7c27.4,13.8,47.4,40.2,52.5,71.5
		c-0.7-11.8-3.8-23.3-9.1-33.7c1.5,0,2.8,0,4-0.2c-1.3-0.6-3.1-1.2-4.9-1.5c-0.9-1.6-1.8-3.2-2.7-4.7c3.1-0.3,6.3-1.1,9.2-2.6
		c-3.6-0.7-7.4-0.6-10.8,0.1c-1.9-2.8-3.9-5.5-6.2-8.1c1.8-1.2,3.8-3,4.8-4.5c-1.7,0.7-3.8,2.3-5.4,3.9c-1.5-1.7-3.1-3.4-4.7-5
		c3-5.3,6-11.6,6.4-14.3c-1.8,1.8-5.2,7.6-7.8,12.9c-3-2.8-6.2-5.3-9.7-7.7c0-2.9-0.2-5.7-0.6-7.2c-0.4,1.3-0.7,3.6-0.9,6.2
		C125.7,15.7,121,13.2,116,11.2L116,11.2z M154.4,37.8c1.7-1.5,5.6-3,8.1-3.1C160.6,36.3,156.7,37.8,154.4,37.8L154.4,37.8z
		 M136.4,19.8c-0.5-3.3,1.6-13.5,3.4-16.7C140.3,6.8,138.1,16.9,136.4,19.8L136.4,19.8z M165.1,46.7c4.5-1.4,29.2-1.1,34.3,0.1
		C194.4,48.3,169.6,47.9,165.1,46.7L165.1,46.7z M167.8,36.8c4,0.3,9.5-1.2,13.2-3.6C176.6,33,171.2,34.6,167.8,36.8L167.8,36.8z
		 M141.9,20.3c1.2-6.4,4.5-14.5,8.4-20.3C148.9,7.1,145.5,15.1,141.9,20.3L141.9,20.3z M150.6,27c3-1.5,8-6.1,9.7-9.4
		C157,19.3,152.1,24,150.6,27z"/>
	<path fill-rule="evenodd" clip-rule="evenodd" fill="#FFFFFF" d="M3.9,26.1c0,0.4,0,0.7-0.1,1c-0.1,0.3-0.2,0.6-0.4,0.8
		c-0.2,0.2-0.4,0.4-0.7,0.5c-0.3,0.1-0.6,0.2-1,0.2c-0.2,0-0.4,0-0.6-0.1c-0.2,0-0.4-0.1-0.6-0.2S0.2,28.1,0.1,28
		C0,27.9,0,27.8,0,27.7c0-0.1,0-0.2,0.1-0.2c0.1-0.1,0.1-0.1,0.3-0.1c0.1,0,0.1,0,0.2,0c0,0,0.1,0.1,0.2,0.1c0.3,0.2,0.6,0.3,1,0.3
		c0.3,0,0.5,0,0.7-0.1c0.2-0.1,0.3-0.2,0.5-0.4C2.9,27.2,3,27,3.1,26.8c0-0.2,0.1-0.5,0.1-0.7v-0.7H1.3c-0.1,0-0.2,0-0.3-0.1
		C1,25.2,1,25.1,1,25c0-0.1,0-0.2,0.1-0.3c0.1-0.1,0.2-0.1,0.3-0.1h1.8V24c0-0.3,0-0.5-0.1-0.7c0-0.2-0.1-0.4-0.2-0.6
		c-0.1-0.2-0.3-0.3-0.5-0.4c-0.2-0.1-0.4-0.1-0.7-0.1c-0.4,0-0.7,0.1-1,0.3c-0.1,0.1-0.1,0.1-0.2,0.1c0,0-0.1,0-0.2,0
		c-0.1,0-0.2,0-0.3-0.1C0,22.5,0,22.4,0,22.3c0-0.1,0-0.2,0.1-0.3c0.1-0.1,0.2-0.2,0.4-0.3c0.2-0.1,0.3-0.1,0.6-0.2
		c0.2,0,0.4-0.1,0.6-0.1c0.4,0,0.7,0.1,1,0.2C3,21.8,3.2,22,3.4,22.2c0.2,0.2,0.3,0.5,0.4,0.8c0.1,0.3,0.1,0.6,0.1,1V26.1L3.9,26.1z
		 M9.7,28.2c0,0.1,0,0.2-0.1,0.3c-0.1,0.1-0.2,0.1-0.3,0.1c-0.1,0-0.2,0-0.3-0.1c-0.1-0.1-0.1-0.2-0.1-0.3v-2.8H6.3v2.8
		c0,0.1,0,0.2-0.1,0.3c-0.1,0.1-0.2,0.1-0.3,0.1c-0.1,0-0.2,0-0.3-0.1c-0.1-0.1-0.1-0.2-0.1-0.3v-6.3c0-0.1,0-0.2,0.1-0.3
		c0.1-0.1,0.2-0.1,0.3-0.1c0.1,0,0.2,0,0.3,0.1c0.1,0.1,0.1,0.2,0.1,0.3v2.8h2.7v-2.8c0-0.1,0-0.2,0.1-0.3c0.1-0.1,0.2-0.1,0.3-0.1
		c0.1,0,0.2,0,0.3,0.1c0.1,0.1,0.1,0.2,0.1,0.3V28.2L9.7,28.2z M15.2,28.1c0,0.1,0,0.2-0.1,0.3c-0.1,0.1-0.2,0.1-0.3,0.1h-2.6
		c-0.2,0-0.3,0-0.4-0.1c-0.1-0.1-0.2-0.2-0.2-0.4v-6c0-0.1,0-0.2,0.1-0.3c0.1-0.1,0.2-0.1,0.3-0.1h2.6c0.1,0,0.2,0,0.3,0.1
		c0.1,0.1,0.1,0.2,0.1,0.3c0,0.1,0,0.2-0.1,0.3c-0.1,0.1-0.2,0.1-0.3,0.1h-2.3v2.3h2.1c0.1,0,0.2,0,0.3,0.1c0.1,0.1,0.1,0.2,0.1,0.3
		c0,0.1,0,0.2-0.1,0.3c-0.1,0.1-0.2,0.1-0.3,0.1h-2.1v2.3h2.4c0.1,0,0.2,0,0.3,0.1C15.1,27.9,15.2,28,15.2,28.1L15.2,28.1z
		 M17.4,25.9v2.2c0,0.1,0,0.2-0.1,0.3c-0.1,0.1-0.2,0.1-0.3,0.1c-0.1,0-0.2,0-0.3-0.1c-0.1-0.1-0.1-0.2-0.1-0.3v-6.1
		c0-0.1,0-0.2,0.1-0.3c0.1-0.1,0.2-0.1,0.3-0.1h1.4c0.4,0,0.7,0.1,1,0.2c0.3,0.1,0.5,0.3,0.7,0.5c0.2,0.2,0.3,0.4,0.4,0.7
		c0.1,0.3,0.1,0.5,0.1,0.8c0,0.7-0.2,1.2-0.6,1.6c-0.4,0.4-0.9,0.6-1.6,0.6H17.4L17.4,25.9z M17.4,25.2h1.1c0.5,0,0.8-0.1,1.1-0.3
		c0.2-0.2,0.4-0.6,0.4-1.1c0-0.2,0-0.3-0.1-0.5c0-0.2-0.1-0.3-0.2-0.5c-0.1-0.1-0.2-0.2-0.4-0.3c-0.2-0.1-0.4-0.1-0.7-0.1h-1.1V25.2
		L17.4,25.2z M23,28.2c0,0.1,0,0.2-0.1,0.3c-0.1,0.1-0.2,0.1-0.3,0.1c-0.1,0-0.2,0-0.3-0.1c-0.1-0.1-0.1-0.2-0.1-0.3V22
		c0-0.1,0-0.2,0.1-0.3c0.1-0.1,0.2-0.1,0.3-0.1h2.6c0.1,0,0.2,0,0.3,0.1c0.1,0.1,0.1,0.2,0.1,0.3c0,0.1,0,0.2-0.1,0.3
		c-0.1,0.1-0.2,0.1-0.3,0.1H23V28.2L23,28.2z M30.4,28.1c0,0.1,0,0.2-0.1,0.3c-0.1,0.1-0.2,0.1-0.3,0.1h-2.6c-0.2,0-0.3,0-0.4-0.1
		c-0.1-0.1-0.2-0.2-0.2-0.4v-6c0-0.1,0-0.2,0.1-0.3c0.1-0.1,0.2-0.1,0.3-0.1h2.6c0.1,0,0.2,0,0.3,0.1c0.1,0.1,0.1,0.2,0.1,0.3
		c0,0.1,0,0.2-0.1,0.3c-0.1,0.1-0.2,0.1-0.3,0.1h-2.3v2.3h2.1c0.1,0,0.2,0,0.3,0.1c0.1,0.1,0.1,0.2,0.1,0.3c0,0.1,0,0.2-0.1,0.3
		c-0.1,0.1-0.2,0.1-0.3,0.1h-2.1v2.3H30c0.1,0,0.2,0,0.3,0.1C30.4,27.9,30.4,28,30.4,28.1L30.4,28.1z M33.1,22.4h-1.3
		c-0.1,0-0.2,0-0.3-0.1c-0.1-0.1-0.1-0.2-0.1-0.3c0-0.1,0-0.2,0.1-0.3c0.1-0.1,0.2-0.1,0.3-0.1h3.4c0.1,0,0.2,0,0.3,0.1
		c0.1,0.1,0.1,0.2,0.1,0.3c0,0.1,0,0.2-0.1,0.3c-0.1,0.1-0.2,0.1-0.3,0.1h-1.3v5.8c0,0.1,0,0.2-0.1,0.3c-0.1,0.1-0.2,0.1-0.3,0.1
		c-0.1,0-0.2,0-0.3-0.1c-0.1-0.1-0.1-0.2-0.1-0.3V22.4L33.1,22.4z M37.4,28.6c-0.1,0-0.2,0-0.3-0.1C37,28.3,37,28.2,37,28.1v-6.2
		c0-0.1,0-0.2,0.1-0.3c0.1-0.1,0.2-0.1,0.3-0.1c0.1,0,0.2,0,0.3,0.1c0.1,0.1,0.1,0.2,0.1,0.3v5l2.7-5.1c0-0.1,0.1-0.1,0.2-0.2
		c0.1,0,0.2-0.1,0.2-0.1c0.1,0,0.2,0,0.3,0.1c0.1,0.1,0.1,0.2,0.1,0.3v6.2c0,0.1,0,0.2-0.1,0.3c-0.1,0.1-0.2,0.1-0.3,0.1
		c-0.1,0-0.2,0-0.3-0.1c-0.1-0.1-0.1-0.2-0.1-0.3v-5l-2.7,5.1c0,0.1-0.1,0.1-0.2,0.2C37.6,28.5,37.5,28.6,37.4,28.6L37.4,28.6z
		 M46.2,21.9c0-0.1,0-0.2,0.1-0.3c0.1-0.1,0.2-0.1,0.3-0.1c0.1,0,0.2,0,0.3,0.1c0.1,0.1,0.1,0.2,0.1,0.3v6.2c0,0.1,0,0.2-0.1,0.3
		c-0.1,0.1-0.2,0.1-0.3,0.1c-0.1,0-0.2,0-0.3-0.1c-0.1-0.1-0.1-0.2-0.1-0.3v-2.5c-0.2,0.1-0.4,0.2-0.6,0.2c-0.2,0-0.4,0.1-0.6,0.1
		c-0.6,0-1.2-0.2-1.5-0.6c-0.4-0.4-0.5-0.9-0.5-1.6v-1.9c0-0.1,0-0.2,0.1-0.3c0.1-0.1,0.2-0.1,0.3-0.1c0.1,0,0.2,0,0.3,0.1
		c0.1,0.1,0.1,0.2,0.1,0.3v1.9c0,0.5,0.1,0.9,0.3,1.1c0.2,0.2,0.6,0.3,1,0.3c0.2,0,0.4,0,0.6-0.1c0.2,0,0.4-0.1,0.6-0.2V21.9
		L46.2,21.9z M52.5,28.1c0,0.1,0,0.2-0.1,0.3c-0.1,0.1-0.2,0.1-0.3,0.1h-2.6c-0.2,0-0.3,0-0.4-0.1c-0.1-0.1-0.2-0.2-0.2-0.4v-6
		c0-0.1,0-0.2,0.1-0.3c0.1-0.1,0.2-0.1,0.3-0.1H52c0.1,0,0.2,0,0.3,0.1c0.1,0.1,0.1,0.2,0.1,0.3c0,0.1,0,0.2-0.1,0.3
		c-0.1,0.1-0.2,0.1-0.3,0.1h-2.3v2.3h2.1c0.1,0,0.2,0,0.3,0.1c0.1,0.1,0.1,0.2,0.1,0.3c0,0.1,0,0.2-0.1,0.3
		c-0.1,0.1-0.2,0.1-0.3,0.1h-2.1v2.3h2.4c0.1,0,0.2,0,0.3,0.1C52.4,27.9,52.5,28,52.5,28.1L52.5,28.1z M53.6,24c0-0.4,0-0.7,0.1-1
		c0.1-0.3,0.2-0.6,0.4-0.8c0.2-0.2,0.4-0.4,0.7-0.5c0.3-0.1,0.6-0.2,1-0.2c0.2,0,0.4,0,0.6,0.1c0.2,0,0.4,0.1,0.6,0.2
		c0.2,0.1,0.3,0.2,0.4,0.3c0.1,0.1,0.1,0.2,0.1,0.3c0,0.1,0,0.2-0.1,0.2c-0.1,0.1-0.1,0.1-0.3,0.1c-0.1,0-0.1,0-0.2,0
		c0,0-0.1-0.1-0.2-0.1c-0.3-0.2-0.6-0.3-1-0.3c-0.3,0-0.5,0-0.7,0.1c-0.2,0.1-0.3,0.2-0.5,0.4c-0.1,0.2-0.2,0.3-0.2,0.6
		c0,0.2-0.1,0.5-0.1,0.7v2.1c0,0.3,0,0.5,0.1,0.7c0,0.2,0.1,0.4,0.2,0.6c0.1,0.2,0.3,0.3,0.5,0.4c0.2,0.1,0.4,0.1,0.7,0.1
		c0.4,0,0.7-0.1,1-0.3c0.1-0.1,0.1-0.1,0.2-0.1c0,0,0.1,0,0.2,0c0.1,0,0.2,0,0.3,0.1c0.1,0.1,0.1,0.1,0.1,0.2c0,0.1,0,0.2-0.1,0.3
		c-0.1,0.1-0.2,0.2-0.4,0.3c-0.2,0.1-0.3,0.1-0.6,0.2c-0.2,0-0.4,0.1-0.6,0.1c-0.4,0-0.7-0.1-1-0.2c-0.3-0.1-0.5-0.3-0.7-0.5
		c-0.2-0.2-0.3-0.5-0.4-0.8c-0.1-0.3-0.1-0.6-0.1-1V24L53.6,24z M59.8,24.6h0.6l2-3c0.1-0.1,0.2-0.2,0.3-0.2c0.1,0,0.2,0,0.3,0.1
		c0.1,0.1,0.1,0.2,0.1,0.3c0,0.1,0,0.1,0,0.2L61,25l2,2.9c0,0.1,0,0.1,0,0.2c0,0.1,0,0.2-0.1,0.3c-0.1,0.1-0.2,0.1-0.3,0.1
		c-0.1,0-0.2-0.1-0.3-0.2l-2-3h-0.6v2.8c0,0.1,0,0.2-0.1,0.3c-0.1,0.1-0.2,0.1-0.3,0.1c-0.1,0-0.2,0-0.3-0.1
		c-0.1-0.1-0.1-0.2-0.1-0.3v-6.3c0-0.1,0-0.2,0.1-0.3c0.1-0.1,0.2-0.1,0.3-0.1c0.1,0,0.2,0,0.3,0.1c0.1,0.1,0.1,0.2,0.1,0.3V24.6
		L59.8,24.6z M64.8,28.3c0,0.1-0.1,0.2-0.2,0.2c-0.1,0.1-0.1,0.1-0.2,0.1c-0.1,0-0.2,0-0.3-0.1c-0.1-0.1-0.1-0.2-0.1-0.3
		c0,0,0,0,0-0.1c0,0,0-0.1,0-0.1l1.9-6c0-0.1,0.1-0.3,0.2-0.4c0.1-0.1,0.2-0.1,0.3-0.1c0.1,0,0.3,0,0.3,0.1c0.1,0.1,0.1,0.2,0.2,0.4
		l1.9,6c0,0,0,0,0,0.1c0,0,0,0.1,0,0.1c0,0.1,0,0.2-0.1,0.3c-0.1,0.1-0.2,0.1-0.3,0.1c-0.1,0-0.1,0-0.2-0.1
		c-0.1-0.1-0.1-0.1-0.2-0.2l-0.4-1.4h-2.5L64.8,28.3L64.8,28.3z M65.4,26.2h2l-1-3.3L65.4,26.2L65.4,26.2z M70.2,23.5
		c0-0.2,0-0.5,0.1-0.7c0.1-0.2,0.2-0.4,0.4-0.6c0.2-0.2,0.4-0.3,0.7-0.4c0.3-0.1,0.6-0.2,1-0.2h1.5c0.1,0,0.2,0,0.3,0.1
		c0.1,0.1,0.1,0.2,0.1,0.3v6.1c0,0.1,0,0.2-0.1,0.3c-0.1,0.1-0.2,0.1-0.3,0.1c-0.1,0-0.2,0-0.3-0.1c-0.1-0.1-0.1-0.2-0.1-0.3v-2.7
		h-0.9l-1.7,2.9c-0.1,0.1-0.2,0.2-0.3,0.2c-0.1,0-0.2,0-0.3-0.1c-0.1-0.1-0.2-0.2-0.2-0.3c0-0.1,0-0.2,0-0.2l1.6-2.6
		c-0.5-0.1-0.8-0.3-1.1-0.6C70.4,24.5,70.2,24.1,70.2,23.5L70.2,23.5z M71,23.5c0,0.4,0.1,0.7,0.3,0.9c0.2,0.2,0.6,0.3,1,0.3h1.2
		v-2.3h-1.1c-0.3,0-0.5,0-0.7,0.1c-0.2,0.1-0.3,0.2-0.4,0.3c-0.1,0.1-0.2,0.2-0.2,0.4C71,23.3,71,23.4,71,23.5L71,23.5z M79.8,28.2
		c0,0.1,0,0.2-0.1,0.3c-0.1,0.1-0.2,0.1-0.3,0.1c-0.1,0-0.2,0-0.3-0.1c-0.1-0.1-0.1-0.2-0.1-0.3V22c0-0.1,0-0.2,0.1-0.3
		c0.1-0.1,0.2-0.1,0.3-0.1h2.6c0.1,0,0.2,0,0.3,0.1c0.1,0.1,0.1,0.2,0.1,0.3c0,0.1,0,0.2-0.1,0.3c-0.1,0.1-0.2,0.1-0.3,0.1h-2.3
		V28.2L79.8,28.2z M84.4,25.9v2.2c0,0.1,0,0.2-0.1,0.3c-0.1,0.1-0.2,0.1-0.3,0.1c-0.1,0-0.2,0-0.3-0.1c-0.1-0.1-0.1-0.2-0.1-0.3
		v-6.1c0-0.1,0-0.2,0.1-0.3c0.1-0.1,0.2-0.1,0.3-0.1h1.4c0.4,0,0.7,0.1,1,0.2c0.3,0.1,0.5,0.3,0.7,0.5c0.2,0.2,0.3,0.4,0.4,0.7
		c0.1,0.3,0.1,0.5,0.1,0.8c0,0.7-0.2,1.2-0.6,1.6c-0.4,0.4-0.9,0.6-1.6,0.6H84.4L84.4,25.9z M84.4,25.2h1.1c0.5,0,0.8-0.1,1.1-0.3
		c0.2-0.2,0.4-0.6,0.4-1.1c0-0.2,0-0.3-0.1-0.5c0-0.2-0.1-0.3-0.2-0.5c-0.1-0.1-0.2-0.2-0.4-0.3c-0.2-0.1-0.4-0.1-0.7-0.1h-1.1V25.2
		L84.4,25.2z M91.6,26.2c-0.1,0.3-0.2,0.6-0.3,0.9c-0.1,0.3-0.2,0.5-0.4,0.7c-0.2,0.2-0.3,0.4-0.6,0.5c-0.2,0.1-0.5,0.2-0.8,0.2
		c-0.1,0-0.2,0-0.3-0.1c-0.1-0.1-0.1-0.2-0.1-0.3c0-0.1,0-0.2,0.1-0.2c0.1-0.1,0.2-0.1,0.3-0.1c0.2,0,0.3,0,0.4-0.1
		c0.1,0,0.2-0.1,0.3-0.2c0.1-0.1,0.2-0.2,0.2-0.3c0.1-0.1,0.1-0.3,0.2-0.4L88.8,22c0,0,0,0,0-0.1c0,0,0-0.1,0-0.1
		c0-0.1,0-0.2,0.1-0.3c0.1-0.1,0.2-0.1,0.3-0.1c0.1,0,0.1,0,0.2,0.1c0.1,0,0.1,0.1,0.1,0.2l1.5,4.1l1.5-4.1c0-0.1,0.1-0.1,0.1-0.2
		c0.1,0,0.1-0.1,0.2-0.1c0.1,0,0.2,0,0.3,0.1c0.1,0.1,0.1,0.2,0.1,0.3c0,0.1,0,0.1,0,0.1L91.6,26.2L91.6,26.2z M98.8,28.2
		c0,0.1,0,0.2-0.1,0.3c-0.1,0.1-0.2,0.1-0.3,0.1c-0.1,0-0.2,0-0.3-0.1c-0.1-0.1-0.1-0.2-0.1-0.3v-5.8h-2.7v5.8c0,0.1,0,0.2-0.1,0.3
		c-0.1,0.1-0.2,0.1-0.3,0.1c-0.1,0-0.2,0-0.3-0.1c-0.1-0.1-0.1-0.2-0.1-0.3V22c0-0.1,0-0.2,0.1-0.3c0.1-0.1,0.2-0.1,0.3-0.1h3.4
		c0.1,0,0.2,0,0.3,0.1c0.1,0.1,0.1,0.2,0.1,0.3V28.2L98.8,28.2z M104.9,28.2c0,0.1,0,0.2-0.1,0.3c-0.1,0.1-0.2,0.1-0.3,0.1
		c-0.1,0-0.2,0-0.3-0.1c-0.1-0.1-0.1-0.2-0.1-0.3v-5.8h-2.7v5.8c0,0.1,0,0.2-0.1,0.3c-0.1,0.1-0.2,0.1-0.3,0.1c-0.1,0-0.2,0-0.3-0.1
		c-0.1-0.1-0.1-0.2-0.1-0.3V22c0-0.1,0-0.2,0.1-0.3c0.1-0.1,0.2-0.1,0.3-0.1h3.4c0.1,0,0.2,0,0.3,0.1c0.1,0.1,0.1,0.2,0.1,0.3V28.2
		L104.9,28.2z M107,28.3c0,0.1-0.1,0.2-0.2,0.2c-0.1,0.1-0.1,0.1-0.2,0.1c-0.1,0-0.2,0-0.3-0.1c-0.1-0.1-0.1-0.2-0.1-0.3
		c0,0,0,0,0-0.1c0,0,0-0.1,0-0.1l1.9-6c0-0.1,0.1-0.3,0.2-0.4c0.1-0.1,0.2-0.1,0.3-0.1c0.1,0,0.3,0,0.3,0.1c0.1,0.1,0.1,0.2,0.2,0.4
		l1.9,6c0,0,0,0,0,0.1c0,0,0,0.1,0,0.1c0,0.1,0,0.2-0.1,0.3c-0.1,0.1-0.2,0.1-0.3,0.1c-0.1,0-0.1,0-0.2-0.1
		c-0.1-0.1-0.1-0.1-0.2-0.2l-0.4-1.4h-2.5L107,28.3L107,28.3z M107.7,26.2h2l-1-3.3L107.7,26.2z"/>
</g>
</svg>
