<?xml version="1.0" encoding="utf-8"?>
<!DOCTYPE svg PUBLIC "-//W3C//DTD SVG 1.1//EN" "http://www.w3.org/Graphics/SVG/1.1/DTD/svg11.dtd">
<svg version="1.1" baseProfile="full"
 xmlns="http://www.w3.org/2000/svg"
 xmlns:xlink="http://www.w3.org/1999/xlink"
 xmlns:ev="http://www.w3.org/2001/xml-events" 
  height="27px" 
  width="33px" 
>
<path fill="rgb( 56, 130, 38 )"
 d="M5.44899999999996,10.754 C5.44899999999996,10.754 5.44899999999996,27 5.44899999999996,27 C5.44899999999996,27 33,27 33,27 C33,27 33,10.754 33,10.754 C33,10.754 5.44899999999996,10.754 5.44899999999996,10.754 ZM30.796,21.501 C30.796,21.501 29.897,22.316 29.897,22.316 C29.783,22.296 29.677,22.254 29.556,22.254 C28.568,22.254 27.769,22.98 27.769,23.876 C27.769,23.986 27.814,24.08 27.837,24.184 C27.837,24.184 26.937,25 26.937,25 C26.937,25 11.51,25 11.51,25 C11.51,25 10.612,24.1849999999999 10.612,24.1849999999999 C10.635,24.081 10.681,23.985 10.681,23.875 C10.681,22.979 9.88,22.255 8.89200000000005,22.255 C8.77099999999996,22.255 8.66600000000005,22.297 8.55200000000002,22.316 C8.55200000000002,22.316 7.65300000000002,21.5 7.65300000000002,21.5 C7.65300000000002,21.5 7.65300000000002,16.253 7.65300000000002,16.253 C7.65300000000002,16.253 8.54999999999995,15.438 8.54999999999995,15.438 C8.66499999999996,15.458 8.77099999999996,15.501 8.89200000000005,15.501 C9.88,15.501 10.679,14.775 10.679,13.879 C10.679,13.769 10.634,13.674 10.61,13.5700000000001 C10.61,13.5700000000001 11.51,12.754 11.51,12.754 C11.51,12.754 26.939,12.754 26.939,12.754 C26.939,12.754 27.837,13.569 27.837,13.569 C27.813,13.673 27.768,13.769 27.768,13.879 C27.768,14.775 28.568,15.499 29.556,15.499 C29.677,15.499 29.782,15.457 29.896,15.438 C29.896,15.438 30.796,16.255 30.796,16.255 C30.796,16.255 30.796,21.501 30.796,21.501 C30.796,21.501 30.796,21.501 30.796,21.501 ZM28.588,18.877 C28.588,19.772 27.788,20.498 26.8,20.498 C25.812,20.498 25.0119999999999,19.772 25.0119999999999,18.877 C25.0119999999999,17.982 25.812,17.2569999999999 26.8,17.2569999999999 C27.788,17.2569999999999 28.588,17.982 28.588,18.877 ZM23.4589999999999,18.877 C23.4589999999999,20.948 21.6079999999999,22.626 19.326,22.626 C17.044,22.626 15.194,20.948 15.194,18.877 C15.194,16.807 17.044,15.128 19.326,15.128 C21.6079999999999,15.128 23.4589999999999,16.807 23.4589999999999,18.877 ZM13.436,18.877 C13.436,19.772 12.635,20.498 11.647,20.498 C10.66,20.498 9.85900000000004,19.772 9.85900000000004,18.877 C9.85900000000004,17.982 10.66,17.2569999999999 11.647,17.2569999999999 C12.635,17.2569999999999 13.436,17.982 13.436,18.877 ZM24.572,9.10000000000002 C24.606,9.19899999999996 24.595,9.29999999999995 24.609,9.39999999999998 C24.609,9.39999999999998 21.1849999999999,9.39999999999998 21.1849999999999,9.39999999999998 C21.322,8.85299999999995 21.724,8.36500000000001 22.338,8.15200000000004 C23.271,7.83100000000002 24.27,8.255 24.572,9.10000000000002 ZM6.11300000000006,9.39999999999998 C6.11300000000006,9.39999999999998 4.072,9.39999999999998 4.072,9.39999999999998 C4.072,9.39999999999998 4.072,13.18 4.072,13.18 C4.072,13.18 3.93200000000002,13.437 3.93200000000002,13.437 C3.93200000000002,13.437 4.072,13.825 4.072,13.825 C4.072,13.825 4.072,20.365 4.072,20.365 C4.072,20.365 0.00099999999998,8.96400000000006 0.00099999999998,8.96400000000006 C0.00099999999998,8.96400000000006 25.997,0 25.997,0 C25.997,0 29.353,9.39999999999998 29.353,9.39999999999998 C29.353,9.39999999999998 27.018,9.39999999999998 27.018,9.39999999999998 C27.018,9.39999999999998 25.773,5.90899999999999 25.773,5.90899999999999 C25.773,5.90899999999999 24.649,5.43100000000004 24.649,5.43100000000004 C24.548,5.48599999999999 24.462,5.55899999999997 24.348,5.59900000000005 C23.417,5.91999999999996 22.417,5.49599999999998 22.115,4.65099999999995 C22.078,4.54700000000003 22.0890000000001,4.44100000000003 22.076,4.33500000000004 C22.076,4.33500000000004 20.952,3.85900000000004 20.952,3.85900000000004 C20.952,3.85900000000004 6.39499999999998,8.87900000000002 6.39499999999998,8.87900000000002 C6.39499999999998,8.87900000000002 6.11300000000006,9.39999999999998 6.11300000000006,9.39999999999998 ZM14.569,8.57600000000002 C16.13,8.03800000000001 17.764,8.41499999999996 18.817,9.39999999999998 C18.817,9.39999999999998 13.128,9.39999999999998 13.128,9.39999999999998 C13.5359999999999,9.05100000000004 14.02,8.76599999999996 14.569,8.57600000000002 Z "/>
</svg>
