<?xml version="1.0" encoding="utf-8"?>
<!DOCTYPE svg PUBLIC "-//W3C//DTD SVG 1.1//EN" "http://www.w3.org/Graphics/SVG/1.1/DTD/svg11.dtd">
<svg version="1.1" baseProfile="full"
 xmlns="http://www.w3.org/2000/svg"
 xmlns:xlink="http://www.w3.org/1999/xlink"
 xmlns:ev="http://www.w3.org/2001/xml-events" 
  height="237px" 
  width="242px" 
>
<path fill="rgb( 47, 112, 170 )"
 d="M24.895,31.865 C24.474,31.952 24.037,31.999 23.5890000000001,31.999 C20.077,31.999 17.227,29.177 17.178,25.678 C17.178,25.649 17.174,25.619 17.174,25.5890000000001 C17.174,25.148 17.232,24.723 17.316,24.307 C17.5359999999999,23.2380000000001 18.018,22.27 18.698,21.468 C19.122,20.968 19.612,20.526 20.168,20.174 C20.168,20.174 20.168,18.625 20.168,18.625 C20.168,18.625 20.168,14.649 20.168,14.649 C20.168,14.649 20.168,12.761 20.168,12.761 C20.168,12.761 20.168,8.78499999999997 20.168,8.78499999999997 C20.168,8.78499999999997 20.168,6.70399999999995 20.168,6.70399999999995 C20.168,6.11400000000003 20.323,5.56100000000004 20.592,5.08100000000002 C21.163,4.06200000000001 22.251,3.37300000000005 23.503,3.37300000000005 C23.759,3.37300000000005 24.0069999999999,3.404 24.246,3.45799999999997 C25.729,3.79600000000005 26.838,5.11900000000003 26.838,6.70399999999995 C26.838,6.70399999999995 26.838,20.068 26.838,20.068 C28.732,21.183 30.006,23.235 30.006,25.59 C30.006,28.683 27.812,31.264 24.895,31.865 ZM27.592,25.208 C27.478,23.841 26.639,22.467 25.051,22.062 C25.051,22.062 25.051,17.814 25.051,17.814 C25.051,17.814 25.051,15.367 25.051,15.367 C25.051,15.367 25.051,14.83 25.051,14.83 C25.051,14.83 25.051,14.649 25.051,14.649 C25.051,14.649 25.051,12.761 25.051,12.761 C25.051,12.761 25.051,12.043 25.051,12.043 C25.051,12.043 25.051,9.59500000000003 25.051,9.59500000000003 C25.051,9.59500000000003 25.051,7.91600000000005 25.051,7.91600000000005 C25.051,6.76099999999997 24.691,5.82600000000002 23.535,5.82600000000002 C23.27,5.82600000000002 23.052,5.88 22.865,5.97000000000003 C22.615,6.09000000000003 22.432,6.28300000000002 22.301,6.52800000000002 C22.2380000000001,6.64400000000001 22.189,6.76999999999998 22.15,6.90599999999995 C22.063,7.20600000000002 22.02,7.54700000000003 22.02,7.91499999999996 C22.02,7.91499999999996 22.02,8.79399999999998 22.02,8.79399999999998 C22.02,8.79399999999998 22.02,12.4 22.02,12.4 C22.02,12.4 22.02,14.829 22.02,14.829 C22.02,14.829 22.02,15.009 22.02,15.009 C22.02,15.009 22.02,18.615 22.02,18.615 C22.02,18.615 22.02,20.503 22.02,20.503 C22.02,20.503 22.02,20.603 22.02,20.603 C22.02,20.603 22.02,22.127 22.02,22.127 C21.7380000000001,22.213 21.48,22.3390000000001 21.236,22.485 C21.004,22.625 20.785,22.7809999999999 20.595,22.9690000000001 C20.1559999999999,23.401 19.846,23.9589999999999 19.687,24.596 C19.638,24.792 19.606,24.995 19.5890000000001,25.206 C19.575,25.311 19.5650000000001,25.417 19.5650000000001,25.525 C19.5650000000001,27.746 21.366,29.547 23.5890000000001,29.547 C25.813,29.547 27.615,27.746 27.615,25.525 C27.615,25.418 27.606,25.312 27.592,25.208 ZM24.355,27.515 C25.005,26.771 25.287,25.93 25.201,25.021 C25.1319999999999,24.279 26.547,24.285 26.615,25.021 C26.717,26.1079999999999 26.354,27.207 25.576,28.096 C25.052,28.696 23.825,28.121 24.355,27.515 ZM22.552,14.829 C22.552,14.829 22.552,11.869 22.552,11.869 C22.552,11.869 22.552,8.79600000000005 22.552,8.79600000000005 C22.552,8.79600000000005 22.552,7.91499999999996 22.552,7.91499999999996 C22.552,7.45799999999997 22.612,7.13699999999994 22.704,6.90800000000002 C22.924,6.35900000000004 23.328,6.35699999999997 23.535,6.35699999999997 C23.744,6.35699999999997 24.151,6.35900000000004 24.37,6.91600000000005 C24.46,7.14300000000003 24.518,7.46199999999999 24.518,7.91499999999996 C24.518,7.91499999999996 24.518,8.80399999999997 24.518,8.80399999999997 C24.518,8.80399999999997 24.518,9.904 24.518,9.904 C24.518,9.904 24.518,12.574 24.518,12.574 C24.518,12.574 24.518,12.76 24.518,12.76 C24.518,12.76 24.518,14.648 24.518,14.648 C24.518,14.648 24.518,14.829 24.518,14.829 C24.518,14.829 24.513,14.829 24.513,14.829 C24.513,14.829 22.552,14.829 22.552,14.829 ZM18.9450000000001,6.08799999999997 C18.9450000000001,6.08799999999997 18.9450000000001,9.85000000000002 18.9450000000001,9.85000000000002 C18.9450000000001,9.85000000000002 17.49,11.2910000000001 17.49,11.2910000000001 C17.146,10.756 16.693,10.298 16.16,9.95000000000005 C16.16,9.95000000000005 18.691,7.44399999999996 18.691,7.44399999999996 C18.691,7.44399999999996 18.712,2.80999999999995 18.712,2.80999999999995 C18.712,2.80999999999995 20.602,2.81799999999998 20.602,2.81799999999998 C20.602,2.81799999999998 20.601,3.149 20.601,3.149 C19.614,3.63999999999999 18.9450000000001,4.63699999999994 18.9450000000001,6.08799999999997 ZM14.654,9.31899999999996 C14.35,9.25400000000002 14.033,9.21699999999998 13.7089999999999,9.21699999999998 C13.386,9.21699999999998 13.0700000000001,9.25400000000002 12.765,9.31899999999996 C12.765,9.31899999999996 12.765,5.76199999999994 12.765,5.76199999999994 C12.765,5.76199999999994 9.48500000000001,2.48500000000001 9.48500000000001,2.48500000000001 C9.48500000000001,2.48500000000001 10.821,1.14999999999998 10.821,1.14999999999998 C10.821,1.14999999999998 12.765,3.09100000000001 12.765,3.09100000000001 C12.765,3.09100000000001 12.765,1.00099999999998 12.765,1.00099999999998 C12.765,1.00099999999998 14.654,1.00099999999998 14.654,1.00099999999998 C14.654,1.00099999999998 14.654,3.09100000000001 14.654,3.09100000000001 C14.654,3.09100000000001 16.598,1.14999999999998 16.598,1.14999999999998 C16.598,1.14999999999998 17.9349999999999,2.48500000000001 17.9349999999999,2.48500000000001 C17.9349999999999,2.48500000000001 14.654,5.76199999999994 14.654,5.76199999999994 C14.654,5.76199999999994 14.654,9.31899999999996 14.654,9.31899999999996 ZM12.765,9.31899999999996 C12.765,9.31899999999996 12.765,9.31899999999996 12.765,9.31899999999996 C12.765,9.31899999999996 12.765,9.31899999999996 12.765,9.31899999999996 C12.765,9.31899999999996 12.765,9.31899999999996 12.765,9.31899999999996 ZM9.92899999999997,11.292 C9.92899999999997,11.292 7.39700000000005,8.78499999999997 7.39700000000005,8.78499999999997 C7.39700000000005,8.78499999999997 2.75900000000001,8.80499999999995 2.75900000000001,8.80499999999995 C2.75900000000001,8.80499999999995 2.75,6.91700000000003 2.75,6.91700000000003 C2.75,6.91700000000003 5.49800000000005,6.90499999999997 5.49800000000005,6.90499999999997 C5.49800000000005,6.90499999999997 4.01199999999994,5.43399999999997 4.01199999999994,5.43399999999997 C4.01199999999994,5.43399999999997 5.34199999999998,4.09299999999996 5.34199999999998,4.09299999999996 C5.34199999999998,4.09299999999996 6.82899999999995,5.56399999999996 6.82899999999995,5.56399999999996 C6.82899999999995,5.56399999999996 6.81600000000003,2.81799999999998 6.81600000000003,2.81799999999998 C6.81600000000003,2.81799999999998 8.70699999999999,2.80899999999997 8.70699999999999,2.80899999999997 C8.70699999999999,2.80899999999997 8.72799999999995,7.44299999999998 8.72799999999995,7.44299999999998 C8.72799999999995,7.44299999999998 11.259,9.95000000000005 11.259,9.95000000000005 C10.726,10.298 10.273,10.756 9.92899999999997,11.292 ZM9.32000000000005,12.76 C9.25400000000002,13.0650000000001 9.21799999999996,13.38 9.21799999999996,13.704 C9.21799999999996,14.028 9.255,14.3440000000001 9.32000000000005,14.648 C9.32000000000005,14.648 5.75900000000001,14.648 5.75900000000001,14.648 C5.75900000000001,14.648 2.47900000000004,17.925 2.47900000000004,17.925 C2.47900000000004,17.925 1.14300000000003,16.59 1.14300000000003,16.59 C1.14300000000003,16.59 3.08600000000001,14.648 3.08600000000001,14.648 C3.08600000000001,14.648 0.99400000000003,14.648 0.99400000000003,14.648 C0.99400000000003,14.648 0.99400000000003,12.759 0.99400000000003,12.759 C0.99400000000003,12.759 3.08600000000001,12.759 3.08600000000001,12.759 C3.08600000000001,12.759 1.14300000000003,10.818 1.14300000000003,10.818 C1.14300000000003,10.818 2.47900000000004,9.48299999999995 2.47900000000004,9.48299999999995 C2.47900000000004,9.48299999999995 5.75900000000001,12.76 5.75900000000001,12.76 C5.75900000000001,12.76 9.32000000000005,12.76 9.32000000000005,12.76 ZM2.75900000000001,18.604 C2.75900000000001,18.604 7.39700000000005,18.625 7.39700000000005,18.625 C7.39700000000005,18.625 9.92899999999997,16.1180000000001 9.92899999999997,16.1180000000001 C10.273,16.654 10.726,17.112 11.259,17.46 C11.259,17.46 8.72799999999995,19.966 8.72799999999995,19.966 C8.72799999999995,19.966 8.70699999999999,24.6 8.70699999999999,24.6 C8.70699999999999,24.6 6.81600000000003,24.592 6.81600000000003,24.592 C6.81600000000003,24.592 6.82899999999995,21.846 6.82899999999995,21.846 C6.82899999999995,21.846 5.34199999999998,23.317 5.34199999999998,23.317 C5.34199999999998,23.317 4.01199999999994,21.975 4.01199999999994,21.975 C4.01199999999994,21.975 5.49800000000005,20.505 5.49800000000005,20.505 C5.49800000000005,20.505 2.75,20.4930000000001 2.75,20.4930000000001 C2.75,20.4930000000001 2.75900000000001,18.604 2.75900000000001,18.604 ZM13.7089999999999,17.128 C11.817,17.128 10.283,15.596 10.283,13.705 C10.283,11.814 11.817,10.2809999999999 13.7089999999999,10.2809999999999 C15.602,10.2809999999999 17.1369999999999,11.814 17.1369999999999,13.705 C17.1369999999999,15.596 15.602,17.128 13.7089999999999,17.128 ZM16.16,17.46 C16.693,17.112 17.146,16.654 17.489,16.1180000000001 C17.489,16.1180000000001 18.9450000000001,17.559 18.9450000000001,17.559 C18.9450000000001,17.559 18.9450000000001,19.422 18.9450000000001,19.422 C18.792,19.537 18.65,19.6609999999999 18.5069999999999,19.783 C18.5069999999999,19.783 16.16,17.46 16.16,17.46 ZM18.9450000000001,12.761 C18.9450000000001,12.761 18.9450000000001,14.649 18.9450000000001,14.649 C18.9450000000001,14.649 18.099,14.649 18.099,14.649 C18.165,14.3440000000001 18.201,14.029 18.201,13.705 C18.201,13.381 18.164,13.0650000000001 18.099,12.761 C18.099,12.761 18.9450000000001,12.761 18.9450000000001,12.761 ZM12.765,18.0890000000001 C13.069,18.155 13.385,18.192 13.7089999999999,18.192 C14.033,18.192 14.35,18.155 14.654,18.0890000000001 C14.654,18.0890000000001 14.654,21.647 14.654,21.647 C14.654,21.647 16.269,23.26 16.269,23.26 C16.125,23.831 16.045,24.451 16.045,25.133 C16.045,25.335 16.057,25.535 16.0700000000001,25.732 C16.0700000000001,25.732 14.654,24.318 14.654,24.318 C14.654,24.318 14.654,26.408 14.654,26.408 C14.654,26.408 12.764,26.408 12.764,26.408 C12.764,26.408 12.764,24.318 12.764,24.318 C12.764,24.318 10.8200000000001,26.259 10.8200000000001,26.259 C10.8200000000001,26.259 9.48500000000001,24.924 9.48500000000001,24.924 C9.48500000000001,24.924 12.765,21.647 12.765,21.647 C12.765,21.647 12.765,18.0890000000001 12.765,18.0890000000001 Z "/>
<path fill="rgb( 175, 96, 162 )"
 d="M238.048,8.88999999999999 C237.044,8.88999999999999 236.23,9.72199999999998 236.23,10.7430000000001 C236.23,11.765 237.044,12.596 238.048,12.596 C239.048,12.596 239.863,11.765 239.863,10.7430000000001 C239.863,9.72199999999998 239.048,8.88999999999999 238.048,8.88999999999999 ZM211.956,8.88999999999999 C210.952,8.88999999999999 210.137,9.72199999999998 210.137,10.7430000000001 C210.137,11.765 210.952,12.596 211.956,12.596 C212.957,12.596 213.771,11.765 213.771,10.7430000000001 C213.771,9.72199999999998 212.957,8.88999999999999 211.956,8.88999999999999 ZM232.649,5.51900000000001 C231.158,5.51900000000001 229.95,6.75599999999997 229.95,8.279 C229.95,9.79899999999998 231.158,11.034 232.649,11.034 C234.139,11.034 235.35,9.79899999999998 235.35,8.279 C235.35,6.75800000000004 234.135,5.51900000000001 232.649,5.51900000000001 ZM241.029,22.292 C241.029,22.292 237.952,22.292 237.952,22.292 C237.952,22.292 237.952,16.508 237.952,16.508 C237.952,15.515 237.664,14.592 237.207,13.788 C237.477,13.707 237.753,13.65 238.048,13.65 C239.689,13.65 241.029,15.018 241.029,16.698 C241.029,16.698 241.029,22.292 241.029,22.292 ZM217.353,5.51900000000001 C215.862,5.51900000000001 214.65,6.75599999999997 214.65,8.279 C214.65,9.79899999999998 215.862,11.034 217.353,11.034 C218.84,11.034 220.051,9.79899999999998 220.051,8.279 C220.051,6.75800000000004 218.84,5.51900000000001 217.353,5.51900000000001 ZM211.956,13.65 C212.249,13.65 212.523,13.707 212.794,13.788 C212.33,14.592 212.049,15.515 212.049,16.508 C212.049,16.508 212.049,22.292 212.049,22.292 C212.049,22.292 208.971,22.292 208.971,22.292 C208.971,22.292 208.971,16.698 208.971,16.698 C208.971,15.018 210.312,13.65 211.956,13.65 ZM224.997,0.00800000000004 C222.797,0.00800000000004 221.004,1.83699999999999 221.004,4.08600000000001 C221.004,6.33399999999995 222.795,8.16499999999996 224.997,8.16499999999996 C227.201,8.16499999999996 228.992,6.33399999999995 228.992,4.08600000000001 C228.994,1.83699999999999 227.201,0.00800000000004 224.997,0.00800000000004 ZM236.963,24.4450000000001 C236.963,24.4450000000001 232.247,24.4450000000001 232.247,24.4450000000001 C232.247,24.4450000000001 232.247,15.645 232.247,15.645 C232.247,14.433 231.936,13.309 231.429,12.299 C231.815,12.183 232.22,12.1 232.645,12.1 C235.023,12.1 236.963,14.076 236.963,16.508 C236.963,16.508 236.963,24.4450000000001 236.963,24.4450000000001 ZM217.746,15.645 C217.746,15.645 217.746,24.4450000000001 217.746,24.4450000000001 C217.746,24.4450000000001 213.038,24.4450000000001 213.038,24.4450000000001 C213.038,24.4450000000001 213.038,16.508 213.038,16.508 C213.038,14.078 214.973,12.1 217.355,12.1 C217.78,12.1 218.181,12.183 218.567,12.299 C218.061,13.309 217.746,14.433 217.746,15.645 ZM218.735,26.992 C218.735,26.992 231.259,26.992 231.259,26.992 C231.259,26.992 231.259,15.645 231.259,15.645 C231.259,12.1180000000001 228.448,9.25 224.997,9.25 C221.542,9.25 218.735,12.1180000000001 218.735,15.645 C218.735,15.645 218.735,26.992 218.735,26.992 Z "/>
<path fill="rgb( 56, 130, 38 )"
 d="M213.449,220.754 C213.449,220.754 213.449,237 213.449,237 C213.449,237 241,237 241,237 C241,237 241,220.754 241,220.754 C241,220.754 213.449,220.754 213.449,220.754 ZM238.796,231.501 C238.796,231.501 237.897,232.316 237.897,232.316 C237.783,232.296 237.677,232.254 237.556,232.254 C236.568,232.254 235.769,232.98 235.769,233.876 C235.769,233.986 235.814,234.08 235.837,234.184 C235.837,234.184 234.937,235 234.937,235 C234.937,235 219.51,235 219.51,235 C219.51,235 218.612,234.185 218.612,234.185 C218.635,234.081 218.681,233.985 218.681,233.875 C218.681,232.979 217.88,232.255 216.892,232.255 C216.771,232.255 216.666,232.297 216.552,232.316 C216.552,232.316 215.653,231.5 215.653,231.5 C215.653,231.5 215.653,226.253 215.653,226.253 C215.653,226.253 216.55,225.438 216.55,225.438 C216.665,225.458 216.771,225.501 216.892,225.501 C217.88,225.501 218.679,224.775 218.679,223.879 C218.679,223.769 218.634,223.674 218.61,223.57 C218.61,223.57 219.51,222.754 219.51,222.754 C219.51,222.754 234.939,222.754 234.939,222.754 C234.939,222.754 235.837,223.569 235.837,223.569 C235.813,223.673 235.768,223.769 235.768,223.879 C235.768,224.775 236.568,225.499 237.556,225.499 C237.677,225.499 237.782,225.457 237.896,225.438 C237.896,225.438 238.796,226.255 238.796,226.255 C238.796,226.255 238.796,231.501 238.796,231.501 C238.796,231.501 238.796,231.501 238.796,231.501 ZM236.588,228.877 C236.588,229.772 235.788,230.498 234.8,230.498 C233.812,230.498 233.012,229.772 233.012,228.877 C233.012,227.982 233.812,227.257 234.8,227.257 C235.788,227.257 236.588,227.982 236.588,228.877 ZM231.459,228.877 C231.459,230.948 229.608,232.626 227.326,232.626 C225.044,232.626 223.194,230.948 223.194,228.877 C223.194,226.807 225.044,225.128 227.326,225.128 C229.608,225.128 231.459,226.807 231.459,228.877 ZM221.436,228.877 C221.436,229.772 220.635,230.498 219.647,230.498 C218.66,230.498 217.859,229.772 217.859,228.877 C217.859,227.982 218.66,227.257 219.647,227.257 C220.635,227.257 221.436,227.982 221.436,228.877 ZM232.572,219.1 C232.606,219.199 232.595,219.3 232.609,219.4 C232.609,219.4 229.185,219.4 229.185,219.4 C229.322,218.853 229.724,218.365 230.338,218.152 C231.271,217.831 232.27,218.255 232.572,219.1 ZM214.113,219.4 C214.113,219.4 212.072,219.4 212.072,219.4 C212.072,219.4 212.072,223.18 212.072,223.18 C212.072,223.18 211.932,223.437 211.932,223.437 C211.932,223.437 212.072,223.825 212.072,223.825 C212.072,223.825 212.072,230.365 212.072,230.365 C212.072,230.365 208.001,218.964 208.001,218.964 C208.001,218.964 233.997,210 233.997,210 C233.997,210 237.353,219.4 237.353,219.4 C237.353,219.4 235.018,219.4 235.018,219.4 C235.018,219.4 233.773,215.909 233.773,215.909 C233.773,215.909 232.649,215.431 232.649,215.431 C232.548,215.486 232.462,215.559 232.348,215.599 C231.417,215.92 230.417,215.496 230.115,214.651 C230.078,214.547 230.089,214.441 230.076,214.335 C230.076,214.335 228.952,213.859 228.952,213.859 C228.952,213.859 214.395,218.879 214.395,218.879 C214.395,218.879 214.113,219.4 214.113,219.4 ZM222.569,218.576 C224.13,218.038 225.764,218.415 226.817,219.4 C226.817,219.4 221.128,219.4 221.128,219.4 C221.536,219.051 222.02,218.766 222.569,218.576 Z "/>
</svg>
