<?xml version="1.0" encoding="utf-8"?>
<!DOCTYPE svg PUBLIC "-//W3C//DTD SVG 1.1//EN" "http://www.w3.org/Graphics/SVG/1.1/DTD/svg11.dtd">
<svg version="1.1" baseProfile="full"
 xmlns="http://www.w3.org/2000/svg"
 xmlns:xlink="http://www.w3.org/1999/xlink"
 xmlns:ev="http://www.w3.org/2001/xml-events" 
  height="27px" 
  width="713px" 
>
<path fill="rgb( 229, 121, 0 )"
 d="M7.489,27 C5.72499999999999,23.394 6.66499999999999,21.328 8.02000000000001,19.3819999999999 C9.505,17.25 9.887,15.14 9.887,15.14 C9.887,15.14 11.055,16.63 10.588,18.961 C12.649,16.707 13.039,13.114 12.727,11.739 C17.388,14.938 19.38,21.866 16.695,27 C30.972,19.0650000000001 20.246,7.19100000000003 18.379,5.85299999999995 C19.002,7.19100000000003 19.12,9.45500000000004 17.862,10.554 C15.734,2.625 10.471,1 10.471,1 C11.093,5.08900000000006 8.215,9.55999999999995 5.43899999999999,12.901 C5.34100000000001,11.271 5.238,10.146 4.36500000000001,8.58500000000004 C4.16900000000001,11.547 1.86500000000001,13.962 1.24100000000001,16.93 C0.39599999999999,20.949 1.874,23.891 7.489,27 Z "/>
<path fill="rgb( 1, 147, 210 )"
 d="M243.523,1.00599999999997 C243.523,1.00599999999997 243.11,6.63800000000003 239.25,10.635 C235.819,13.471 235.27,14.978 235.056,17.117 C234.842,19.264 235.075,23.417 238.938,26.25 C238.938,26.25 237.549,22.803 240.97,19.971 C244.232,17.272 243.829,15.355 243.78,15.177 C243.82,15.329 244.593,18.147 246.286,19.749 C248.022,21.3920000000001 247.769,24.299 246.126,26.994 C246.126,26.994 251.465,23.49 251.938,18.79 C252.704,11.14 246.007,2.24800000000005 243.523,1.00599999999997 Z "/>
<path fill="rgb( 175, 134, 85 )"
 d="M473.5,3.97299999999996 C469.668,3.97299999999996 466.997,3.18899999999996 466.997,2.48599999999999 C466.997,1.78200000000004 469.668,0.99900000000002 473.5,0.99900000000002 C477.332,0.99900000000002 480.003,1.78300000000002 480.003,2.48599999999999 C480.003,3.18899999999996 477.332,3.97299999999996 473.5,3.97299999999996 ZM473.5,1.46299999999997 C471.757,1.46299999999997 469.881,1.78300000000002 469.881,2.48500000000001 C469.881,3.18799999999999 471.757,3.50800000000004 473.5,3.50800000000004 C475.243,3.50800000000004 477.119,3.18799999999999 477.119,2.48500000000001 C477.119,1.78300000000002 475.243,1.46299999999997 473.5,1.46299999999997 ZM470.208,2.48599999999999 C470.208,2.25099999999998 471.37,1.79499999999996 473.5,1.79499999999996 C475.63,1.79499999999996 476.793,2.25099999999998 476.793,2.48599999999999 C476.793,2.72000000000003 475.63,3.17600000000004 473.5,3.17600000000004 C471.37,3.17600000000004 470.208,2.72000000000003 470.208,2.48599999999999 ZM474.452,2.48500000000001 C474.452,2.39400000000001 474.379,2.31899999999996 474.289,2.31899999999996 C474.289,2.31899999999996 472.602,2.31899999999996 472.602,2.31899999999996 C472.512,2.31899999999996 472.439,2.39400000000001 472.439,2.48500000000001 C472.439,2.577 472.512,2.65099999999995 472.602,2.65099999999995 C472.602,2.65099999999995 474.289,2.65099999999995 474.289,2.65099999999995 C474.379,2.65099999999995 474.452,2.577 474.452,2.48500000000001 ZM474.126,4.29700000000003 C474.126,4.29700000000003 474.126,15.399 474.126,15.399 C474.126,15.49 474.199,15.5650000000001 474.289,15.5650000000001 C474.379,15.5650000000001 474.452,15.49 474.452,15.399 C474.452,15.399 474.452,4.28700000000003 474.452,4.28700000000003 C475.063,4.26499999999999 475.667,4.221 476.244,4.15700000000004 C476.244,4.16200000000003 476.242,4.16600000000005 476.242,4.17200000000003 C476.242,4.17200000000003 476.242,6.43600000000004 476.242,6.43600000000004 C476.242,6.52700000000004 476.314,6.60199999999998 476.405,6.60199999999998 C476.494,6.60199999999998 476.568,6.52700000000004 476.568,6.43600000000004 C476.568,6.43600000000004 476.568,4.17200000000003 476.568,4.17200000000003 C476.568,4.15300000000002 476.563,4.13599999999997 476.557,4.11800000000005 C478.112,3.92200000000003 479.42,3.56899999999996 480.003,3.07299999999998 C480.003,3.07299999999998 480.003,24.514 480.003,24.514 C480.003,25.008 478.682,25.5410000000001 476.568,25.8150000000001 C476.568,25.8150000000001 476.568,9.69899999999996 476.568,9.69899999999996 C476.568,9.60799999999995 476.494,9.53300000000002 476.405,9.53300000000002 C476.314,9.53300000000002 476.242,9.60799999999995 476.242,9.69899999999996 C476.242,9.69899999999996 476.242,25.855 476.242,25.855 C475.424,25.947 474.503,26.001 473.5,26.001 C469.668,26.001 466.996,25.218 466.996,24.514 C466.996,24.514 466.996,3.07399999999996 466.996,3.07399999999996 C467.941,3.87699999999995 470.79,4.30399999999997 473.5,4.30399999999997 C473.708,4.30399999999997 473.916,4.30200000000002 474.126,4.29700000000003 ZM479.078,8.81500000000005 C479.168,8.81500000000005 479.242,8.74099999999999 479.242,8.649 C479.242,8.649 479.242,5.94799999999998 479.242,5.94799999999998 C479.242,5.85699999999997 479.168,5.78300000000002 479.078,5.78300000000002 C478.988,5.78300000000002 478.915,5.85699999999997 478.915,5.94799999999998 C478.915,5.94799999999998 478.915,8.649 478.915,8.649 C478.915,8.74099999999999 478.988,8.81500000000005 479.078,8.81500000000005 ZM478.589,22.745 C478.589,22.837 478.662,22.9109999999999 478.752,22.9109999999999 C478.842,22.9109999999999 478.915,22.837 478.915,22.745 C478.915,22.745 478.915,20.087 478.915,20.087 C478.915,19.995 478.842,19.921 478.752,19.921 C478.662,19.921 478.589,19.995 478.589,20.087 C478.589,20.087 478.589,22.745 478.589,22.745 ZM477.717,15.78 C477.717,15.871 477.791,15.946 477.881,15.946 C477.971,15.946 478.044,15.871 478.044,15.78 C478.044,15.78 478.044,8.649 478.044,8.649 C478.044,8.55799999999999 477.971,8.48299999999995 477.881,8.48299999999995 C477.791,8.48299999999995 477.717,8.55799999999999 477.717,8.649 C477.717,8.649 477.717,15.78 477.717,15.78 ZM468.847,23.077 C468.847,23.168 468.92,23.2430000000001 469.01,23.2430000000001 C469.1,23.2430000000001 469.173,23.168 469.173,23.077 C469.173,23.077 469.173,11.634 469.173,11.634 C469.173,11.543 469.1,11.468 469.01,11.468 C468.92,11.468 468.847,11.543 468.847,11.634 C468.847,11.634 468.847,23.077 468.847,23.077 ZM467.867,8.93899999999996 C467.867,8.84799999999996 467.794,8.774 467.704,8.774 C467.614,8.774 467.541,8.84799999999996 467.541,8.93899999999996 C467.541,8.93899999999996 467.541,18.599 467.541,18.599 C467.541,18.691 467.614,18.765 467.704,18.765 C467.794,18.765 467.867,18.691 467.867,18.599 C467.867,18.599 467.867,8.93899999999996 467.867,8.93899999999996 ZM468.847,9.202 C468.847,9.202 468.847,10.805 468.847,10.805 C468.847,10.897 468.92,10.971 469.01,10.971 C469.1,10.971 469.173,10.897 469.173,10.805 C469.173,10.805 469.173,9.202 469.173,9.202 C469.173,9.11099999999999 469.1,9.03599999999994 469.01,9.03599999999994 C468.92,9.03599999999994 468.847,9.11099999999999 468.847,9.202 ZM469.391,6.99099999999999 C469.391,6.89999999999998 469.318,6.82500000000005 469.228,6.82500000000005 C469.138,6.82500000000005 469.065,6.89999999999998 469.065,6.99099999999999 C469.065,6.99099999999999 469.065,8.26199999999994 469.065,8.26199999999994 C469.065,8.35400000000004 469.138,8.428 469.228,8.428 C469.318,8.428 469.391,8.35400000000004 469.391,8.26199999999994 C469.391,8.26199999999994 469.391,6.99099999999999 469.391,6.99099999999999 ZM470.208,10.0309999999999 C470.208,9.94000000000005 470.134,9.86500000000001 470.044,9.86500000000001 C469.954,9.86500000000001 469.881,9.94000000000005 469.881,10.0309999999999 C469.881,10.0309999999999 469.881,16.167 469.881,16.167 C469.881,16.258 469.954,16.333 470.044,16.333 C470.134,16.333 470.208,16.258 470.208,16.167 C470.208,16.167 470.208,10.0309999999999 470.208,10.0309999999999 ZM470.208,22.524 C470.208,22.433 470.134,22.3579999999999 470.044,22.3579999999999 C469.954,22.3579999999999 469.881,22.433 469.881,22.524 C469.881,22.524 469.881,23.6849999999999 469.881,23.6849999999999 C469.881,23.777 469.954,23.851 470.044,23.851 C470.134,23.851 470.208,23.777 470.208,23.6849999999999 C470.208,23.6849999999999 470.208,22.524 470.208,22.524 ZM472.765,14.5359999999999 C472.765,14.4450000000001 472.692,14.371 472.602,14.371 C472.512,14.371 472.439,14.4450000000001 472.439,14.5359999999999 C472.439,14.5359999999999 472.439,24.514 472.439,24.514 C472.439,24.606 472.512,24.68 472.602,24.68 C472.692,24.68 472.765,24.606 472.765,24.514 C472.765,24.514 472.765,14.5359999999999 472.765,14.5359999999999 Z "/>
<path fill="rgb( 47, 112, 170 )"
 d="M708.434,6.73099999999999 C706.216,3.68499999999995 703.966,1.221 703.943,1.19600000000003 C703.829,1.07100000000003 703.668,1 703.5,1 C703.332,1 703.171,1.07100000000003 703.056,1.19600000000003 C703.034,1.221 700.784,3.68499999999995 698.566,6.73099999999999 C695.536,10.891 694,14.12 694,16.329 C694,21.662 698.262,26 703.5,26 C708.738,26 713,21.662 713,16.329 C713,14.12 711.464,10.891 708.434,6.73099999999999 ZM704.449,22.871 C703.951,22.99 703.437,23.051 702.923,23.051 C699.267,23.051 696.293,20.023 696.293,16.302 C696.293,15.789 696.448,14.859 697.187,13.345 C697.262,13.192 697.433,13.117 697.593,13.165 C697.753,13.213 697.855,13.372 697.836,13.5410000000001 C697.819,13.687 697.81,13.824 697.81,13.949 C697.81,17.938 700.597,21.403 704.437,22.188 C704.595,22.22 704.71,22.36 704.713,22.524 C704.716,22.689 704.606,22.833 704.449,22.871 Z "/>
</svg>
