<?xml version="1.0" encoding="utf-8"?>
<!DOCTYPE svg PUBLIC "-//W3C//DTD SVG 1.1//EN" "http://www.w3.org/Graphics/SVG/1.1/DTD/svg11.dtd">
<svg version="1.1" baseProfile="full"
 xmlns="http://www.w3.org/2000/svg"
 xmlns:xlink="http://www.w3.org/1999/xlink"
 xmlns:ev="http://www.w3.org/2001/xml-events" 
  height="27px" 
  width="34px" 
>
<path fill="rgb( 175, 96, 162 )"
 d="M30.048,8.88999999999999 C29.044,8.88999999999999 28.23,9.72199999999998 28.23,10.7430000000001 C28.23,11.765 29.044,12.596 30.048,12.596 C31.048,12.596 31.8630000000001,11.765 31.8630000000001,10.7430000000001 C31.8630000000001,9.72199999999998 31.048,8.88999999999999 30.048,8.88999999999999 ZM3.95600000000002,8.88999999999999 C2.952,8.88999999999999 2.13699999999994,9.72199999999998 2.13699999999994,10.7430000000001 C2.13699999999994,11.765 2.952,12.596 3.95600000000002,12.596 C4.95699999999999,12.596 5.77099999999996,11.765 5.77099999999996,10.7430000000001 C5.77099999999996,9.72199999999998 4.95699999999999,8.88999999999999 3.95600000000002,8.88999999999999 ZM24.649,5.51900000000001 C23.158,5.51900000000001 21.95,6.75599999999997 21.95,8.279 C21.95,9.79899999999998 23.158,11.034 24.649,11.034 C26.139,11.034 27.35,9.79899999999998 27.35,8.279 C27.35,6.75800000000004 26.135,5.51900000000001 24.649,5.51900000000001 ZM33.029,22.292 C33.029,22.292 29.952,22.292 29.952,22.292 C29.952,22.292 29.952,16.508 29.952,16.508 C29.952,15.515 29.664,14.592 29.207,13.788 C29.477,13.707 29.753,13.65 30.048,13.65 C31.689,13.65 33.029,15.018 33.029,16.698 C33.029,16.698 33.029,22.292 33.029,22.292 ZM9.35299999999995,5.51900000000001 C7.86199999999997,5.51900000000001 6.64999999999998,6.75599999999997 6.64999999999998,8.279 C6.64999999999998,9.79899999999998 7.86199999999997,11.034 9.35299999999995,11.034 C10.84,11.034 12.051,9.79899999999998 12.051,8.279 C12.051,6.75800000000004 10.84,5.51900000000001 9.35299999999995,5.51900000000001 ZM3.95600000000002,13.65 C4.24900000000002,13.65 4.52300000000002,13.707 4.79399999999998,13.788 C4.33000000000004,14.592 4.04899999999998,15.515 4.04899999999998,16.508 C4.04899999999998,16.508 4.04899999999998,22.292 4.04899999999998,22.292 C4.04899999999998,22.292 0.971,22.292 0.971,22.292 C0.971,22.292 0.971,16.698 0.971,16.698 C0.971,15.018 2.31200000000001,13.65 3.95600000000002,13.65 ZM16.997,0.00800000000004 C14.797,0.00800000000004 13.004,1.83699999999999 13.004,4.08600000000001 C13.004,6.33399999999995 14.795,8.16499999999996 16.997,8.16499999999996 C19.201,8.16499999999996 20.992,6.33399999999995 20.992,4.08600000000001 C20.994,1.83699999999999 19.201,0.00800000000004 16.997,0.00800000000004 ZM28.963,24.4450000000001 C28.963,24.4450000000001 24.247,24.4450000000001 24.247,24.4450000000001 C24.247,24.4450000000001 24.247,15.645 24.247,15.645 C24.247,14.433 23.936,13.309 23.429,12.299 C23.8150000000001,12.183 24.22,12.1 24.645,12.1 C27.023,12.1 28.963,14.076 28.963,16.508 C28.963,16.508 28.963,24.4450000000001 28.963,24.4450000000001 ZM9.74599999999998,15.645 C9.74599999999998,15.645 9.74599999999998,24.4450000000001 9.74599999999998,24.4450000000001 C9.74599999999998,24.4450000000001 5.03800000000001,24.4450000000001 5.03800000000001,24.4450000000001 C5.03800000000001,24.4450000000001 5.03800000000001,16.508 5.03800000000001,16.508 C5.03800000000001,14.078 6.97299999999996,12.1 9.35500000000002,12.1 C9.77999999999997,12.1 10.181,12.183 10.567,12.299 C10.061,13.309 9.74599999999998,14.433 9.74599999999998,15.645 ZM10.735,26.992 C10.735,26.992 23.259,26.992 23.259,26.992 C23.259,26.992 23.259,15.645 23.259,15.645 C23.259,12.1180000000001 20.448,9.25 16.997,9.25 C13.542,9.25 10.735,12.1180000000001 10.735,15.645 C10.735,15.645 10.735,26.992 10.735,26.992 Z "/>
</svg>
