<?xml version="1.0" encoding="utf-8"?>
<!DOCTYPE svg PUBLIC "-//W3C//DTD SVG 1.1//EN" "http://www.w3.org/Graphics/SVG/1.1/DTD/svg11.dtd">
<svg version="1.1" baseProfile="full"
 xmlns="http://www.w3.org/2000/svg"
 xmlns:xlink="http://www.w3.org/1999/xlink"
 xmlns:ev="http://www.w3.org/2001/xml-events" 
  height="25px" 
  width="19px" 
>
<path fill="rgb( 47, 112, 170 )"
 d="M14.434,5.73099999999999 C12.216,2.68499999999995 9.96600000000001,0.221 9.94299999999998,0.19600000000003 C9.82899999999995,0.07100000000003 9.66800000000001,0 9.5,0 C9.33199999999999,0 9.17100000000005,0.07100000000003 9.05600000000004,0.19600000000003 C9.03399999999999,0.221 6.78399999999999,2.68499999999995 4.56600000000003,5.73099999999999 C1.53599999999994,9.89099999999996 0,13.12 0,15.329 C0,20.662 4.26199999999994,25 9.5,25 C14.7380000000001,25 19,20.662 19,15.329 C19,13.12 17.4640000000001,9.89099999999996 14.434,5.73099999999999 ZM10.449,21.871 C9.95100000000002,21.99 9.43700000000001,22.051 8.923,22.051 C5.26700000000005,22.051 2.29300000000001,19.023 2.29300000000001,15.302 C2.29300000000001,14.789 2.44799999999998,13.859 3.18700000000001,12.345 C3.26199999999994,12.192 3.43299999999999,12.117 3.59299999999996,12.165 C3.75300000000004,12.213 3.85500000000002,12.372 3.83600000000001,12.5410000000001 C3.81899999999996,12.687 3.80999999999995,12.824 3.80999999999995,12.949 C3.80999999999995,16.938 6.59699999999998,20.403 10.437,21.188 C10.595,21.22 10.71,21.36 10.713,21.524 C10.716,21.689 10.606,21.833 10.449,21.871 Z "/>
</svg>
