<?xml version="1.0" encoding="utf-8"?>
<!DOCTYPE svg PUBLIC "-//W3C//DTD SVG 1.1//EN" "http://www.w3.org/Graphics/SVG/1.1/DTD/svg11.dtd">
<svg version="1.1" baseProfile="full"
 xmlns="http://www.w3.org/2000/svg"
 xmlns:xlink="http://www.w3.org/1999/xlink"
 xmlns:ev="http://www.w3.org/2001/xml-events" 
  height="31px" 
  width="31px" 
>
<path fill="rgb( 47, 112, 170 )"
 d="M24.895,30.865 C24.474,30.952 24.037,30.999 23.5890000000001,30.999 C20.077,30.999 17.227,28.177 17.178,24.678 C17.178,24.649 17.174,24.619 17.174,24.5890000000001 C17.174,24.148 17.232,23.723 17.316,23.307 C17.5359999999999,22.2380000000001 18.018,21.27 18.698,20.468 C19.122,19.968 19.612,19.526 20.168,19.174 C20.168,19.174 20.168,17.625 20.168,17.625 C20.168,17.625 20.168,13.649 20.168,13.649 C20.168,13.649 20.168,11.761 20.168,11.761 C20.168,11.761 20.168,7.78499999999997 20.168,7.78499999999997 C20.168,7.78499999999997 20.168,5.70399999999995 20.168,5.70399999999995 C20.168,5.11400000000003 20.323,4.56100000000004 20.592,4.08100000000002 C21.163,3.06200000000001 22.251,2.37300000000005 23.503,2.37300000000005 C23.759,2.37300000000005 24.0069999999999,2.404 24.246,2.45799999999997 C25.729,2.79600000000005 26.838,4.11900000000003 26.838,5.70399999999995 C26.838,5.70399999999995 26.838,19.068 26.838,19.068 C28.732,20.183 30.006,22.235 30.006,24.59 C30.006,27.683 27.812,30.264 24.895,30.865 ZM27.592,24.208 C27.478,22.841 26.639,21.467 25.051,21.062 C25.051,21.062 25.051,16.814 25.051,16.814 C25.051,16.814 25.051,14.367 25.051,14.367 C25.051,14.367 25.051,13.83 25.051,13.83 C25.051,13.83 25.051,13.649 25.051,13.649 C25.051,13.649 25.051,11.761 25.051,11.761 C25.051,11.761 25.051,11.043 25.051,11.043 C25.051,11.043 25.051,8.59500000000003 25.051,8.59500000000003 C25.051,8.59500000000003 25.051,6.91600000000005 25.051,6.91600000000005 C25.051,5.76099999999997 24.691,4.82600000000002 23.535,4.82600000000002 C23.27,4.82600000000002 23.052,4.88 22.865,4.97000000000003 C22.615,5.09000000000003 22.432,5.28300000000002 22.301,5.52800000000002 C22.2380000000001,5.64400000000001 22.189,5.76999999999998 22.15,5.90599999999995 C22.063,6.20600000000002 22.02,6.54700000000003 22.02,6.91499999999996 C22.02,6.91499999999996 22.02,7.79399999999998 22.02,7.79399999999998 C22.02,7.79399999999998 22.02,11.4 22.02,11.4 C22.02,11.4 22.02,13.829 22.02,13.829 C22.02,13.829 22.02,14.009 22.02,14.009 C22.02,14.009 22.02,17.615 22.02,17.615 C22.02,17.615 22.02,19.503 22.02,19.503 C22.02,19.503 22.02,19.603 22.02,19.603 C22.02,19.603 22.02,21.127 22.02,21.127 C21.7380000000001,21.213 21.48,21.3390000000001 21.236,21.485 C21.004,21.625 20.785,21.7809999999999 20.595,21.9690000000001 C20.1559999999999,22.401 19.846,22.9589999999999 19.687,23.596 C19.638,23.792 19.606,23.995 19.5890000000001,24.206 C19.575,24.311 19.5650000000001,24.417 19.5650000000001,24.525 C19.5650000000001,26.746 21.366,28.547 23.5890000000001,28.547 C25.813,28.547 27.615,26.746 27.615,24.525 C27.615,24.418 27.606,24.312 27.592,24.208 ZM24.355,26.515 C25.005,25.771 25.287,24.93 25.201,24.021 C25.1319999999999,23.279 26.547,23.285 26.615,24.021 C26.717,25.1079999999999 26.354,26.207 25.576,27.096 C25.052,27.696 23.825,27.121 24.355,26.515 ZM22.552,13.829 C22.552,13.829 22.552,10.869 22.552,10.869 C22.552,10.869 22.552,7.79600000000005 22.552,7.79600000000005 C22.552,7.79600000000005 22.552,6.91499999999996 22.552,6.91499999999996 C22.552,6.45799999999997 22.612,6.13699999999994 22.704,5.90800000000002 C22.924,5.35900000000004 23.328,5.35699999999997 23.535,5.35699999999997 C23.744,5.35699999999997 24.151,5.35900000000004 24.37,5.91600000000005 C24.46,6.14300000000003 24.518,6.46199999999999 24.518,6.91499999999996 C24.518,6.91499999999996 24.518,7.80399999999997 24.518,7.80399999999997 C24.518,7.80399999999997 24.518,8.904 24.518,8.904 C24.518,8.904 24.518,11.574 24.518,11.574 C24.518,11.574 24.518,11.76 24.518,11.76 C24.518,11.76 24.518,13.648 24.518,13.648 C24.518,13.648 24.518,13.829 24.518,13.829 C24.518,13.829 24.513,13.829 24.513,13.829 C24.513,13.829 22.552,13.829 22.552,13.829 ZM18.9450000000001,5.08799999999997 C18.9450000000001,5.08799999999997 18.9450000000001,8.85000000000002 18.9450000000001,8.85000000000002 C18.9450000000001,8.85000000000002 17.49,10.2910000000001 17.49,10.2910000000001 C17.146,9.75599999999997 16.693,9.298 16.16,8.95000000000005 C16.16,8.95000000000005 18.691,6.44399999999996 18.691,6.44399999999996 C18.691,6.44399999999996 18.712,1.80999999999995 18.712,1.80999999999995 C18.712,1.80999999999995 20.602,1.81799999999998 20.602,1.81799999999998 C20.602,1.81799999999998 20.601,2.149 20.601,2.149 C19.614,2.63999999999999 18.9450000000001,3.63699999999994 18.9450000000001,5.08799999999997 ZM14.654,8.31899999999996 C14.35,8.25400000000002 14.033,8.21699999999998 13.7089999999999,8.21699999999998 C13.386,8.21699999999998 13.0700000000001,8.25400000000002 12.765,8.31899999999996 C12.765,8.31899999999996 12.765,4.76199999999994 12.765,4.76199999999994 C12.765,4.76199999999994 9.48500000000001,1.48500000000001 9.48500000000001,1.48500000000001 C9.48500000000001,1.48500000000001 10.821,0.14999999999998 10.821,0.14999999999998 C10.821,0.14999999999998 12.765,2.09100000000001 12.765,2.09100000000001 C12.765,2.09100000000001 12.765,0.00099999999998 12.765,0.00099999999998 C12.765,0.00099999999998 14.654,0.00099999999998 14.654,0.00099999999998 C14.654,0.00099999999998 14.654,2.09100000000001 14.654,2.09100000000001 C14.654,2.09100000000001 16.598,0.14999999999998 16.598,0.14999999999998 C16.598,0.14999999999998 17.9349999999999,1.48500000000001 17.9349999999999,1.48500000000001 C17.9349999999999,1.48500000000001 14.654,4.76199999999994 14.654,4.76199999999994 C14.654,4.76199999999994 14.654,8.31899999999996 14.654,8.31899999999996 ZM12.765,8.31899999999996 C12.765,8.31899999999996 12.765,8.31899999999996 12.765,8.31899999999996 C12.765,8.31899999999996 12.765,8.31899999999996 12.765,8.31899999999996 C12.765,8.31899999999996 12.765,8.31899999999996 12.765,8.31899999999996 ZM9.92899999999997,10.292 C9.92899999999997,10.292 7.39700000000005,7.78499999999997 7.39700000000005,7.78499999999997 C7.39700000000005,7.78499999999997 2.75900000000001,7.80499999999995 2.75900000000001,7.80499999999995 C2.75900000000001,7.80499999999995 2.75,5.91700000000003 2.75,5.91700000000003 C2.75,5.91700000000003 5.49800000000005,5.90499999999997 5.49800000000005,5.90499999999997 C5.49800000000005,5.90499999999997 4.01199999999994,4.43399999999997 4.01199999999994,4.43399999999997 C4.01199999999994,4.43399999999997 5.34199999999998,3.09299999999996 5.34199999999998,3.09299999999996 C5.34199999999998,3.09299999999996 6.82899999999995,4.56399999999996 6.82899999999995,4.56399999999996 C6.82899999999995,4.56399999999996 6.81600000000003,1.81799999999998 6.81600000000003,1.81799999999998 C6.81600000000003,1.81799999999998 8.70699999999999,1.80899999999997 8.70699999999999,1.80899999999997 C8.70699999999999,1.80899999999997 8.72799999999995,6.44299999999998 8.72799999999995,6.44299999999998 C8.72799999999995,6.44299999999998 11.259,8.95000000000005 11.259,8.95000000000005 C10.726,9.298 10.273,9.75599999999997 9.92899999999997,10.292 ZM9.32000000000005,11.76 C9.25400000000002,12.0650000000001 9.21799999999996,12.38 9.21799999999996,12.704 C9.21799999999996,13.028 9.255,13.3440000000001 9.32000000000005,13.648 C9.32000000000005,13.648 5.75900000000001,13.648 5.75900000000001,13.648 C5.75900000000001,13.648 2.47900000000004,16.925 2.47900000000004,16.925 C2.47900000000004,16.925 1.14300000000003,15.59 1.14300000000003,15.59 C1.14300000000003,15.59 3.08600000000001,13.648 3.08600000000001,13.648 C3.08600000000001,13.648 0.99400000000003,13.648 0.99400000000003,13.648 C0.99400000000003,13.648 0.99400000000003,11.759 0.99400000000003,11.759 C0.99400000000003,11.759 3.08600000000001,11.759 3.08600000000001,11.759 C3.08600000000001,11.759 1.14300000000003,9.81799999999998 1.14300000000003,9.81799999999998 C1.14300000000003,9.81799999999998 2.47900000000004,8.48299999999995 2.47900000000004,8.48299999999995 C2.47900000000004,8.48299999999995 5.75900000000001,11.76 5.75900000000001,11.76 C5.75900000000001,11.76 9.32000000000005,11.76 9.32000000000005,11.76 ZM2.75900000000001,17.604 C2.75900000000001,17.604 7.39700000000005,17.625 7.39700000000005,17.625 C7.39700000000005,17.625 9.92899999999997,15.1180000000001 9.92899999999997,15.1180000000001 C10.273,15.654 10.726,16.112 11.259,16.46 C11.259,16.46 8.72799999999995,18.966 8.72799999999995,18.966 C8.72799999999995,18.966 8.70699999999999,23.6 8.70699999999999,23.6 C8.70699999999999,23.6 6.81600000000003,23.592 6.81600000000003,23.592 C6.81600000000003,23.592 6.82899999999995,20.846 6.82899999999995,20.846 C6.82899999999995,20.846 5.34199999999998,22.317 5.34199999999998,22.317 C5.34199999999998,22.317 4.01199999999994,20.975 4.01199999999994,20.975 C4.01199999999994,20.975 5.49800000000005,19.505 5.49800000000005,19.505 C5.49800000000005,19.505 2.75,19.4930000000001 2.75,19.4930000000001 C2.75,19.4930000000001 2.75900000000001,17.604 2.75900000000001,17.604 ZM13.7089999999999,16.128 C11.817,16.128 10.283,14.596 10.283,12.705 C10.283,10.814 11.817,9.28099999999995 13.7089999999999,9.28099999999995 C15.602,9.28099999999995 17.1369999999999,10.814 17.1369999999999,12.705 C17.1369999999999,14.596 15.602,16.128 13.7089999999999,16.128 ZM16.16,16.46 C16.693,16.112 17.146,15.654 17.489,15.1180000000001 C17.489,15.1180000000001 18.9450000000001,16.559 18.9450000000001,16.559 C18.9450000000001,16.559 18.9450000000001,18.422 18.9450000000001,18.422 C18.792,18.537 18.65,18.6609999999999 18.5069999999999,18.783 C18.5069999999999,18.783 16.16,16.46 16.16,16.46 ZM18.9450000000001,11.761 C18.9450000000001,11.761 18.9450000000001,13.649 18.9450000000001,13.649 C18.9450000000001,13.649 18.099,13.649 18.099,13.649 C18.165,13.3440000000001 18.201,13.029 18.201,12.705 C18.201,12.381 18.164,12.0650000000001 18.099,11.761 C18.099,11.761 18.9450000000001,11.761 18.9450000000001,11.761 ZM12.765,17.0890000000001 C13.069,17.155 13.385,17.192 13.7089999999999,17.192 C14.033,17.192 14.35,17.155 14.654,17.0890000000001 C14.654,17.0890000000001 14.654,20.647 14.654,20.647 C14.654,20.647 16.269,22.26 16.269,22.26 C16.125,22.831 16.045,23.451 16.045,24.133 C16.045,24.335 16.057,24.535 16.0700000000001,24.732 C16.0700000000001,24.732 14.654,23.318 14.654,23.318 C14.654,23.318 14.654,25.408 14.654,25.408 C14.654,25.408 12.764,25.408 12.764,25.408 C12.764,25.408 12.764,23.318 12.764,23.318 C12.764,23.318 10.8200000000001,25.259 10.8200000000001,25.259 C10.8200000000001,25.259 9.48500000000001,23.924 9.48500000000001,23.924 C9.48500000000001,23.924 12.765,20.647 12.765,20.647 C12.765,20.647 12.765,17.0890000000001 12.765,17.0890000000001 Z "/>
</svg>
